<svg height="512" viewBox="0 0 512 512" width="512" xmlns="http://www.w3.org/2000/svg"><path d="m260 120a8 8 0 0 1 0-16 24 24 0 0 0 0-48 8 8 0 0 1 0-16 40 40 0 0 1 0 80z" fill="#aac3d7"/><path d="m108 120a8 8 0 0 1 0-16 24 24 0 0 0 0-48 8 8 0 0 1 0-16 40 40 0 0 1 0 80z" fill="#aac3d7"/><path d="m20 144h368a0 0 0 0 1 0 0v240a32 32 0 0 1 -32 32h-304a32 32 0 0 1 -32-32v-240a0 0 0 0 1 0 0z" fill="#aac3d7"/><path d="m20 144h328a0 0 0 0 1 0 0v240a32 32 0 0 1 -32 32h-264a32 32 0 0 1 -32-32v-240a0 0 0 0 1 0 0z" fill="#d7e6e6"/><path d="m52 80h304a32 32 0 0 1 32 32v32a0 0 0 0 1 0 0h-368a0 0 0 0 1 0 0v-32a32 32 0 0 1 32-32z" fill="#d7322d"/><path d="m52 80h264a32 32 0 0 1 32 32v32a0 0 0 0 1 0 0h-328a0 0 0 0 1 0 0v-32a32 32 0 0 1 32-32z" fill="#f04b37"/><path d="m108 120a40 40 0 0 1 0-80 8 8 0 0 1 0 16 24 24 0 0 0 0 48 8 8 0 0 1 0 16z" fill="#d7e6e6"/><path d="m260 120a40 40 0 0 1 0-80 8 8 0 0 1 0 16 24 24 0 0 0 0 48 8 8 0 0 1 0 16z" fill="#d7e6e6"/><g fill="#f04b37"><path d="m169.657 186.343a8 8 0 0 0 -11.314 0l-10.343 10.343-10.343-10.343a8 8 0 1 0 -11.314 11.314l10.343 10.343-10.343 10.343a8 8 0 0 0 11.314 11.314l10.343-10.343 10.343 10.343a8 8 0 0 0 11.314-11.314l-10.343-10.343 10.343-10.343a8 8 0 0 0 0-11.314z"/><path d="m241.657 186.343a8 8 0 0 0 -11.314 0l-10.343 10.343-10.343-10.343a8 8 0 0 0 -11.314 11.314l10.343 10.343-10.343 10.343a8 8 0 0 0 11.314 11.314l10.343-10.343 10.343 10.343a8 8 0 0 0 11.314-11.314l-10.343-10.343 10.343-10.343a8 8 0 0 0 0-11.314z"/><path d="m303.314 208 10.343-10.343a8 8 0 0 0 -11.314-11.314l-10.343 10.343-10.343-10.343a8 8 0 0 0 -11.314 11.314l10.343 10.343-10.343 10.343a8 8 0 0 0 11.314 11.314l10.343-10.343 10.343 10.343a8 8 0 1 0 11.314-11.314z"/><path d="m97.657 258.343a8 8 0 0 0 -11.314 0l-10.343 10.343-10.343-10.343a8 8 0 0 0 -11.314 11.314l10.343 10.343-10.343 10.343a8 8 0 0 0 11.314 11.314l10.343-10.343 10.343 10.343a8 8 0 1 0 11.314-11.314l-10.343-10.343 10.343-10.343a8 8 0 0 0 0-11.314z"/><path d="m169.657 258.343a8 8 0 0 0 -11.314 0l-10.343 10.343-10.343-10.343a8 8 0 1 0 -11.314 11.314l10.343 10.343-10.343 10.343a8 8 0 0 0 11.314 11.314l10.343-10.343 10.343 10.343a8 8 0 1 0 11.314-11.314l-10.343-10.343 10.343-10.343a8 8 0 0 0 0-11.314z"/><path d="m241.657 258.343a8 8 0 0 0 -11.314 0l-10.343 10.343-10.343-10.343a8 8 0 0 0 -11.314 11.314l10.343 10.343-10.343 10.343a8 8 0 0 0 11.314 11.314l10.343-10.343 10.343 10.343a8 8 0 1 0 11.314-11.314l-10.343-10.343 10.343-10.343a8 8 0 0 0 0-11.314z"/><path d="m313.657 258.343a8 8 0 0 0 -11.314 0l-10.343 10.343-10.343-10.343a8 8 0 0 0 -11.314 11.314l10.343 10.343-10.343 10.343a8 8 0 0 0 11.314 11.314l10.343-10.343 10.343 10.343a8 8 0 0 0 11.314-11.314l-10.343-10.343 10.343-10.343a8 8 0 0 0 0-11.314z"/><path d="m97.657 330.343a8 8 0 0 0 -11.314 0l-10.343 10.343-10.343-10.343a8 8 0 0 0 -11.314 11.314l10.343 10.343-10.343 10.343a8 8 0 0 0 11.314 11.314l10.343-10.343 10.343 10.343a8 8 0 1 0 11.314-11.314l-10.343-10.343 10.343-10.343a8 8 0 0 0 0-11.314z"/><path d="m169.657 330.343a8 8 0 0 0 -11.314 0l-10.343 10.343-10.343-10.343a8 8 0 1 0 -11.314 11.314l10.343 10.343-10.343 10.343a8 8 0 0 0 11.314 11.314l10.343-10.343 10.343 10.343a8 8 0 1 0 11.314-11.314l-10.343-10.343 10.343-10.343a8 8 0 0 0 0-11.314z"/><path d="m241.657 330.343a8 8 0 0 0 -11.314 0l-10.343 10.343-10.343-10.343a8 8 0 0 0 -11.314 11.314l10.343 10.343-10.343 10.343a8 8 0 0 0 11.314 11.314l10.343-10.343 10.343 10.343a8 8 0 1 0 11.314-11.314l-10.343-10.343 10.343-10.343a8 8 0 0 0 0-11.314z"/></g><rect fill="#f5871e" height="240" rx="120" width="272" x="220" y="232"/><circle cx="340" cy="352" fill="#fabe19" r="120"/><path d="m236 356a4 4 0 0 1 -4-4 108.122 108.122 0 0 1 108-108 4 4 0 0 1 0 8 100.112 100.112 0 0 0 -100 100 4 4 0 0 1 -4 4z" fill="#ffdc37"/><circle cx="340" cy="352" fill="#d7e6f0" r="88"/><path d="m340 400a8 8 0 0 0 -8 8v8a8 8 0 0 0 16 0v-8a8 8 0 0 0 -8-8z" fill="#353744"/><path d="m404 344h-8a8 8 0 0 0 0 16h8a8 8 0 0 0 0-16z" fill="#353744"/><path d="m348 329.371v-41.371a8 8 0 0 0 -16 0v41.371a24.058 24.058 0 0 0 -14.629 14.629h-41.371a8 8 0 0 0 0 16h41.371a24 24 0 1 0 30.629-30.629z" fill="#353744"/><circle cx="340" cy="352" fill="#faa51e" r="8"/></svg>