<svg id="Capa_1" enable-background="new 0 0 512 512" height="512" viewBox="0 0 512 512" width="512" xmlns="http://www.w3.org/2000/svg"><g><g><g><g><g><g><path d="m381.256 504.5h-304.499c-17.035 0-30.845-13.81-30.845-30.845v-392.929c0-17.035 13.81-30.845 30.845-30.845h304.499c17.035 0 30.845 13.81 30.845 30.845v392.929c0 17.035-13.81 30.845-30.845 30.845z" fill="#d6a889"/><path d="m381.256 49.88h-46.414c7.695 0 13.933 6.238 13.933 13.933v426.754c0 7.695-6.238 13.933-13.933 13.933h46.414c17.035 0 30.845-13.81 30.845-30.845v-392.929c0-17.036-13.81-30.846-30.845-30.846z" fill="#cc9675"/><path d="m90.94 469.375c-5.469 0-9.903-4.434-9.903-9.903v-364.564c0-5.469 4.434-9.903 9.903-9.903h276.133c5.469 0 9.903 4.434 9.903 9.903v364.562c0 5.47-4.434 9.904-9.904 9.904h-276.132z" fill="#f4fbff"/><path d="m367.073 85.006h-18.299v384.369h18.298c5.47 0 9.904-4.434 9.904-9.904v-364.562c0-5.469-4.434-9.903-9.903-9.903z" fill="#e4f6ff"/><path d="m269.43 31.181v-10.017c0-7.546-6.117-13.664-13.664-13.664h-53.52c-7.546 0-13.664 6.117-13.664 13.664v10.017c0 3.086-2.502 5.588-5.588 5.588h-22.274c-7.41 0-13.417 6.007-13.417 13.417v34.821h163.404v-34.822c0-7.41-6.007-13.417-13.417-13.417h-22.274c-3.085.001-5.586-2.501-5.586-5.587z" fill="#4a80aa"/><g><path d="m297.292 36.768h-22.274c-3.086 0-5.588-2.502-5.588-5.588v-10.016c0-7.546-6.117-13.664-13.664-13.664h-20.194c6.522 0 11.809 5.287 11.809 11.809v65.697h63.327v-34.821c0-7.41-6.006-13.417-13.416-13.417z" fill="#407093"/></g></g><g><g><g><path d="m213.792 248.736h-77.624c-8.403 0-15.215-6.812-15.215-15.215v-96.253c0-8.403 6.812-15.215 15.215-15.215h77.624c8.403 0 15.215 6.812 15.215 15.215v96.253c-.001 8.403-6.813 15.215-15.215 15.215z" fill="#bed8fb"/><path d="m174.98 200.136c-24.608 0-45.553 15.655-53.436 37.547 1.812 6.377 7.666 11.053 14.624 11.053h77.624c6.958 0 12.812-4.676 14.624-11.053-7.883-21.892-28.829-37.547-53.436-37.547z" fill="#4a80aa"/><circle cx="174.979" cy="181.611" fill="#365e7d" r="24.234"/></g></g></g></g></g></g><g><circle cx="385.971" cy="424.383" fill="#8fddc1" r="80.117"/><path d="m385.971 344.265c-4.448 0-8.811.363-13.062 1.06 18.206 14.686 29.852 37.178 29.852 62.391 0 39.8-29.021 72.821-67.055 79.058 13.745 11.088 31.23 17.726 50.265 17.726 44.248 0 80.117-35.87 80.117-80.117s-35.869-80.118-80.117-80.118z" fill="#77ceaf"/></g></g><g><path d="m337.06 277.341h-215.611c-4.142 0-7.5 3.357-7.5 7.5s3.358 7.5 7.5 7.5h215.611c4.142 0 7.5-3.357 7.5-7.5s-3.358-7.5-7.5-7.5z"/><path d="m337.06 318.83h-215.611c-4.142 0-7.5 3.357-7.5 7.5s3.358 7.5 7.5 7.5h215.611c4.142 0 7.5-3.357 7.5-7.5s-3.358-7.5-7.5-7.5z"/><path d="m251.006 360.32h-129.557c-4.142 0-7.5 3.357-7.5 7.5s3.358 7.5 7.5 7.5h129.557c4.142 0 7.5-3.357 7.5-7.5s-3.358-7.5-7.5-7.5z"/><path d="m251.006 401.81h-129.557c-4.142 0-7.5 3.357-7.5 7.5s3.358 7.5 7.5 7.5h129.557c4.142 0 7.5-3.357 7.5-7.5s-3.358-7.5-7.5-7.5z"/><path d="m266.673 227.782h70.387c4.142 0 7.5-3.357 7.5-7.5s-3.358-7.5-7.5-7.5h-70.387c-4.142 0-7.5 3.357-7.5 7.5s3.358 7.5 7.5 7.5z"/><path d="m266.673 191.983h70.387c4.142 0 7.5-3.357 7.5-7.5s-3.358-7.5-7.5-7.5h-70.387c-4.142 0-7.5 3.357-7.5 7.5s3.358 7.5 7.5 7.5z"/><path d="m136.167 256.235h77.624c12.525 0 22.715-10.189 22.715-22.715v-96.253c0-12.525-10.19-22.715-22.715-22.715h-77.624c-12.525 0-22.715 10.189-22.715 22.715v96.253c.001 12.526 10.191 22.715 22.715 22.715zm77.625-15h-77.624c-2.753 0-5.166-1.454-6.532-3.629 5.695-13.395 16.937-23.532 30.823-27.793 4.355 2.251 9.29 3.532 14.521 3.532s10.166-1.28 14.521-3.532c13.886 4.261 25.128 14.398 30.823 27.793-1.366 2.176-3.78 3.629-6.532 3.629zm-38.813-42.89c-9.228 0-16.734-7.507-16.734-16.734s7.507-16.734 16.734-16.734 16.734 7.507 16.734 16.734-7.506 16.734-16.734 16.734zm-38.812-68.792h77.624c4.254 0 7.715 3.461 7.715 7.715v75.255c-5.579-5.854-12.24-10.628-19.673-14.034 3.086-4.893 4.88-10.679 4.88-16.878 0-17.498-14.236-31.734-31.734-31.734s-31.734 14.236-31.734 31.734c0 6.2 1.794 11.985 4.88 16.878-7.433 3.405-14.094 8.18-19.673 14.034v-75.255c.001-4.254 3.462-7.715 7.715-7.715z"/><path d="m431.771 391.667c-3.132-2.71-7.868-2.369-10.579.763l-44.693 51.64-25.054-19.335c-3.278-2.529-7.989-1.925-10.52 1.355-2.531 3.279-1.924 7.989 1.355 10.52l25.602 19.758c5.961 4.6 14.534 3.786 19.504-1.958l45.146-52.163c2.713-3.133 2.371-7.869-.761-10.58z"/><path d="m419.601 343.481v-262.755c0-21.144-17.202-38.346-38.345-38.346h-35.485c-4.142 0-7.5 3.357-7.5 7.5s3.358 7.5 7.5 7.5h35.485c12.873 0 23.345 10.473 23.345 23.346v258.04c-6.006-1.306-12.238-2-18.63-2-.5 0-.998.011-1.496.019v-241.876c0-9.597-7.807-17.403-17.403-17.403h-48.864v-27.32c0-.163-.002-.324-.006-.473-.251-11.273-9.632-20.444-20.911-20.444h-20.361v-8.104c0-11.671-9.494-21.165-21.164-21.165h-53.52c-11.67 0-21.164 9.494-21.164 21.164v8.104h-20.362c-11.279 0-20.66 9.171-20.912 20.467l-.004 27.771h-48.865c-9.596 0-17.402 7.807-17.402 17.402v364.563c0 9.597 7.807 17.403 17.403 17.403h224.922c5.872 7.823 13.019 14.635 21.133 20.125h-260.238c-12.873 0-23.345-10.473-23.345-23.346v-392.927c0-12.873 10.473-23.346 23.345-23.346h35.248c4.142 0 7.5-3.357 7.5-7.5s-3.358-7.5-7.5-7.5h-35.248c-21.144 0-38.345 17.202-38.345 38.346v392.929c0 21.144 17.202 38.346 38.345 38.346h309.214c48.312 0 87.617-39.305 87.617-87.617 0-36.404-22.317-67.689-53.987-80.903zm-264.797-293.295.001-.139c.071-3.187 2.725-5.778 5.915-5.778h22.274c7.216 0 13.087-5.871 13.087-13.088v-10.017c0-3.398 2.765-6.164 6.164-6.164h53.52c3.398 0 6.164 2.766 6.164 6.164v10.017c0 7.217 5.871 13.088 13.088 13.088h22.274c3.19 0 5.844 2.592 5.915 5.792l.002 27.445h-148.404zm-63.864 411.689c-1.325 0-2.403-1.078-2.403-2.403v-364.564c0-1.324 1.078-2.402 2.402-2.402h276.133c1.325 0 2.403 1.078 2.403 2.403v243.421c-40.453 7.739-71.122 43.378-71.122 86.053 0 13.408 3.031 26.12 8.438 37.492zm295.031 35.125c-.818 0-1.628-.035-2.439-.062-.008 0-.017 0-.025-.001-38.903-1.306-70.153-33.34-70.153-72.555 0-40.041 32.576-72.617 72.617-72.617s72.617 32.576 72.617 72.617-32.575 72.618-72.617 72.618z"/></g></g></svg>