<?xml version="1.0"?>
<svg xmlns="http://www.w3.org/2000/svg" xmlns:xlink="http://www.w3.org/1999/xlink" xmlns:svgjs="http://svgjs.com/svgjs" width="288" height="288" version="1.1">
  <rect id="backgroundrect" width="100%" height="100%" x="0" y="0" fill="none" stroke="none"/>
  <defs id="SvgjsDefs1048"/>
  <g class="currentLayer" style="">
    <title>Layer 1</title>
    <g id="SvgjsG1049" class="selected" fill="#ffffff" fill-opacity="1">
      <svg xmlns="http://www.w3.org/2000/svg" width="288" height="288" enable-background="new 0 0 64 64" viewBox="0 0 64 64" id="svg_1">
        <switch>
          <g fill="#ffffff" class="color00acd7 svgShape" id="svg_2" fill-opacity="1">
            <path d="m4.8 27.3c-.1 0-.2-.1-.1-.2l.7-.8c.1-.1.2-.2.3-.2h11.1c.1 0 .2.1.1.2l-.5.8c-.1.1-.2.2-.3.2zm-4.7 2.9c-.1 0-.1-.1-.1-.2l.7-.8c0-.1.2-.2.3-.2h14.2c.1 0 .2.1.2.2l-.2.7c0 .1-.2.2-.3.2zm7.6 2.8c-.1 0-.2-.1-.1-.2l.4-.7c.1-.1.2-.2.3-.2h6.2c.1 0 .2.1.2.2l-.1.7c0 .1-.1.2-.2.2zm32.3-6.3-5.2 1.4c-.5.1-.5.2-.9-.3-.5-.5-.8-.9-1.5-1.2-2-1-3.9-.7-5.6.5-2.1 1.4-3.2 3.4-3.2 5.9s1.7 4.5 4.2 4.9c2.1.3 3.9-.5 5.3-2.1.3-.3.5-.7.8-1.2h-6c-.7 0-.8-.4-.6-.9.4-1 1.2-2.6 1.6-3.4.1-.2.3-.5.8-.5h11.3c-.1.8-.1 1.7-.2 2.5-.3 2.2-1.2 4.3-2.6 6.1-2.2 3-5.2 4.8-8.9 5.3-3.1.4-5.9-.2-8.4-2.1-2.3-1.7-3.6-4.1-4-6.9-.4-3.4.6-6.4 2.6-9.1 2.2-2.9 5.1-4.7 8.7-5.4 2.9-.5 5.7-.2 8.3 1.5 1.7 1.1 2.8 2.6 3.6 4.4.4.4.3.5-.1.6z" fill="#ffffff" class="color000 svgShape" id="svg_3" fill-opacity="1"/>
            <path d="m50.3 44c-2.8-.1-5.4-.9-7.6-2.7-1.8-1.6-3-3.6-3.4-6-.6-3.5.4-6.6 2.5-9.4 2.3-3 5-4.5 8.7-5.2 3.2-.6 6.2-.2 8.9 1.6 2.5 1.7 4 4 4.4 6.9.5 4.2-.7 7.6-3.6 10.6-2.1 2.1-4.6 3.4-7.5 4-.7 0-1.6.1-2.4.2zm7.4-12.6c0-.4 0-.7-.1-1-.6-3.1-3.4-4.8-6.4-4.1-2.9.7-4.8 2.5-5.5 5.4-.6 2.4.6 4.9 2.9 5.9 1.7.7 3.4.7 5.1-.2 2.5-1.4 3.9-3.4 4-6z" fill="#ffffff" class="color000 svgShape" id="svg_4" fill-opacity="1"/>
          </g>
        </switch>
      </svg>
    </g>
  </g>
</svg>
