<?xml version="1.0" encoding="UTF-8" standalone="no"?>
<!DOCTYPE svg PUBLIC "-//W3C//DTD SVG 1.1//EN" "http://www.w3.org/Graphics/SVG/1.1/DTD/svg11.dtd">
<svg version="1.1" xmlns="http://www.w3.org/2000/svg" xmlns:xlink="http://www.w3.org/1999/xlink" preserveAspectRatio="xMidYMid meet" viewBox="158.99948427163514 178.83739899187185 214.67873333228454 220.5479809145184" width="210.68" height="216.55"><defs><path d="M259.25 181.37C251.91 185.08 193.22 214.74 185.88 218.44C182.05 220.37 179.27 224.05 178.31 228.43C176.52 236.75 162.15 303.31 160.36 311.63C159.5 315.54 160.19 319.63 162.33 322.98C162.58 323.38 162.84 323.77 163.12 324.15C193.53 364.21 210.43 386.47 213.81 390.92C216.49 394.4 220.51 396.41 224.75 396.39C232.88 396.39 297.91 396.39 306.04 396.39C310.29 396.39 314.32 394.29 316.99 390.86C322.06 384.18 362.59 330.75 367.65 324.07C370.31 320.59 371.31 315.98 370.28 311.62C368.48 303.29 354.02 236.67 352.21 228.35C351.25 223.97 348.46 220.29 344.64 218.36C337.32 214.66 278.72 185.08 271.4 181.38C269.29 180.27 266.95 179.75 264.6 179.85C262.78 179.97 260.94 180.48 259.25 181.37Z" id="d1OXeflb88"></path><path d="M272.91 245.31C273.35 244.99 273.62 244.46 273.62 243.89C273.62 243.46 273.62 241.3 273.62 237.42L266.99 242.24L266.99 249.62C270.15 247.33 272.12 245.89 272.91 245.31Z" id="h2p5MYpv4"></path><path d="M272.18 274.13C268.64 271.55 266.68 270.12 266.28 269.84C265.72 269.42 264.96 269.42 264.39 269.84C264 270.12 262.04 271.55 258.5 274.13L265.34 279.1L272.18 274.13Z" id="a21777PIM"></path><path d="M257.06 243.89C257.06 244.46 257.32 244.99 257.77 245.31C258.16 245.6 260.13 247.04 263.68 249.62L263.68 242.24L257.06 237.42C257.06 240.87 257.06 243.03 257.06 243.89Z" id="a1AXTiWrGR"></path><path d="M273.62 277.31L266.99 282.12L266.99 289.51C270.54 286.92 272.51 285.48 272.91 285.2C273.35 284.87 273.62 284.34 273.62 283.77C273.62 282.91 273.62 280.75 273.62 277.31Z" id="e2J1oVwm"></path><path d="M258.5 234.25L265.34 239.22L272.18 234.25C268.64 231.67 266.68 230.24 266.28 229.95C265.72 229.54 264.96 229.54 264.39 229.95C263.61 230.53 261.64 231.96 258.5 234.25Z" id="c3jH9eve1N"></path><path d="M290.18 289.51L290.18 282.12L283.55 277.31C283.55 281.19 283.55 283.34 283.55 283.77C283.55 284.34 283.82 284.87 284.26 285.2C284.26 285.2 286.24 286.63 290.18 289.51Z" id="apwIIz9kA"></path><path d="M257.06 283.77C257.06 284.34 257.32 284.87 257.77 285.2C258.16 285.48 260.13 286.92 263.68 289.51L263.68 282.12L257.06 277.31C257.06 280.75 257.06 282.91 257.06 283.77Z" id="g10132hEQU"></path><path d="M245.25 314.01L252.09 318.99L258.93 314.01C255.39 311.44 253.43 310.01 253.04 309.72C252.47 309.3 251.71 309.3 251.15 309.72C250.36 310.29 248.4 311.72 245.25 314.01Z" id="bpALbZpqm"></path><path d="M311.92 314.01C308.38 311.44 306.42 310.01 306.03 309.72C305.46 309.3 304.7 309.3 304.14 309.72C303.74 310.01 301.78 311.44 298.24 314.01L305.08 318.99L311.92 314.01Z" id="f1wjUkR5VU"></path><path d="M300.11 277.31L293.49 282.12L293.49 289.51C297.04 286.92 299.01 285.48 299.4 285.2C299.85 284.87 300.11 284.34 300.11 283.77C300.11 282.91 300.11 280.75 300.11 277.31Z" id="b1cwCqiOV9"></path><path d="M271.75 314.01L278.59 318.99L285.43 314.01C281.89 311.44 279.92 310.01 279.53 309.72C278.96 309.3 278.21 309.3 277.64 309.72C276.86 310.29 274.89 311.72 271.75 314.01Z" id="f4cniuHPc0"></path><path d="M298.67 274.13C295.14 271.55 293.17 270.12 292.78 269.84C292.21 269.42 291.46 269.42 290.89 269.84C290.5 270.12 288.53 271.55 284.99 274.13L291.83 279.1L298.67 274.13Z" id="bh6ZDON2P"></path><path d="M223.94 322L217.32 317.19C217.32 321.07 217.32 323.22 217.32 323.66C217.32 324.22 217.58 324.75 218.03 325.08C218.42 325.37 220.39 326.8 223.94 329.39L223.94 322Z" id="a5v7U0Y9S5"></path><path d="M270.31 323.66C270.31 324.22 270.57 324.75 271.02 325.08C271.41 325.37 273.38 326.8 276.93 329.39L276.93 322L270.31 317.19C270.31 320.64 270.31 322.79 270.31 323.66Z" id="cX6f2jn9U"></path><path d="M230.56 283.77C230.56 284.34 230.83 284.87 231.27 285.2C231.67 285.48 233.64 286.92 237.19 289.51L237.19 282.12L230.56 277.31C230.56 280.75 230.56 282.91 230.56 283.77Z" id="fmTo60khr"></path><path d="M259.66 325.08C260.11 324.75 260.37 324.22 260.37 323.66C260.37 323.22 260.37 321.07 260.37 317.19L253.75 322L253.75 329.39C256.9 327.09 258.87 325.65 259.66 325.08Z" id="c5tZGrxF"></path><path d="M303.43 322L296.8 317.19C296.8 321.07 296.8 323.22 296.8 323.66C296.8 324.22 297.07 324.75 297.51 325.08C297.91 325.37 299.88 326.8 303.43 329.39L303.43 322Z" id="c1pLCxCt4R"></path><path d="M306.74 329.39C310.29 326.8 312.26 325.37 312.65 325.08C313.1 324.75 313.36 324.22 313.36 323.66C313.36 323.22 313.36 321.07 313.36 317.19L306.74 322L306.74 329.39Z" id="agX8uTNt5"></path><path d="M286.16 325.08C286.6 324.75 286.87 324.22 286.87 323.66C286.87 323.22 286.87 321.07 286.87 317.19L280.24 322L280.24 329.39C283.4 327.09 285.37 325.65 286.16 325.08Z" id="a8gmQ39E8"></path><path d="M247.12 277.31L240.5 282.12L240.5 289.51C244.05 286.92 246.02 285.48 246.41 285.2C246.86 284.87 247.12 284.34 247.12 283.77C247.12 282.91 247.12 280.75 247.12 277.31Z" id="btztXZWwn"></path><path d="M245.68 274.13C242.15 271.55 240.18 270.12 239.79 269.84C239.22 269.42 238.47 269.42 237.9 269.84C237.51 270.12 235.54 271.55 232 274.13L238.84 279.1L245.68 274.13Z" id="b72O8cQ4J"></path><path d="M243.81 323.66C243.81 324.22 244.08 324.75 244.52 325.08C244.92 325.37 246.89 326.8 250.44 329.39L250.44 322L243.81 317.19C243.81 320.64 243.81 322.79 243.81 323.66Z" id="c57zxf6aKs"></path><path d="M233.88 317.19L227.25 322L227.25 329.39C230.8 326.8 232.77 325.37 233.17 325.08C233.61 324.75 233.88 324.22 233.88 323.66C233.88 322.79 233.88 320.64 233.88 317.19Z" id="a1BuZcpps2"></path><path d="M232.44 314.01C228.9 311.44 226.93 310.01 226.54 309.72C225.97 309.3 225.22 309.3 224.65 309.72C224.26 310.01 222.29 311.44 218.76 314.01L225.6 318.99L232.44 314.01Z" id="a4tVIMwYP"></path><path d="M290.18 268.28C291.2 267.64 292.47 267.64 293.49 268.28C293.49 267.88 293.49 264.72 293.49 264.32C293.48 261.45 291.26 259.13 288.52 259.12C287.09 259.12 279.91 259.12 266.99 259.12C266.99 254.67 266.99 252.2 266.99 251.7C265.98 252.35 264.7 252.35 263.68 251.7C263.68 252.2 263.68 254.67 263.68 259.12C250.77 259.12 243.59 259.12 242.16 259.12C239.42 259.13 237.2 261.45 237.19 264.32C237.19 264.72 237.19 267.88 237.19 268.28C238.21 267.64 239.48 267.64 240.5 268.28C240.5 267.88 240.5 264.72 240.5 264.32C240.5 263.37 241.24 262.59 242.16 262.59C243.59 262.59 250.77 262.59 263.68 262.59C263.68 266 263.68 267.9 263.68 268.28C264.7 267.64 265.98 267.64 266.99 268.28C266.99 267.9 266.99 266 266.99 262.59C279.91 262.59 287.09 262.59 288.52 262.59C289.44 262.59 290.18 263.37 290.18 264.32C290.18 265.11 290.18 267.88 290.18 268.28Z" id="c2t3lrWOp"></path><path d="M227.25 304.21C227.25 303.25 227.99 302.47 228.91 302.47C230.34 302.47 237.52 302.47 250.44 302.47C250.44 305.88 250.44 307.78 250.44 308.16C251.45 307.52 252.73 307.52 253.75 308.16C253.75 307.78 253.75 305.88 253.75 302.47L276.93 302.47C276.93 305.88 276.93 307.78 276.93 308.16C277.95 307.52 279.22 307.52 280.24 308.16C280.24 307.78 280.24 305.88 280.24 302.47C293.16 302.47 300.33 302.47 301.77 302.47C302.68 302.47 303.43 303.25 303.43 304.21C303.43 304.6 303.43 307.76 303.43 308.16C304.44 307.52 305.72 307.52 306.74 308.16C306.74 307.76 306.74 304.6 306.74 304.21C306.73 301.34 304.51 299.01 301.77 299C301.22 299 298.46 299 293.49 299C293.49 294.55 293.49 292.08 293.49 291.58C292.47 292.23 291.2 292.23 290.18 291.58C290.18 292.08 290.18 294.55 290.18 299L266.99 299C266.99 294.55 266.99 292.08 266.99 291.58C265.98 292.23 264.7 292.23 263.68 291.58C263.68 292.08 263.68 294.55 263.68 299L240.5 299C240.5 294.55 240.5 292.08 240.5 291.58C239.48 292.23 238.21 292.23 237.19 291.58C237.19 292.08 237.19 294.55 237.19 299C232.22 299 229.46 299 228.91 299C226.17 299.01 223.95 301.34 223.94 304.21C223.94 304.6 223.94 307.76 223.94 308.16C224.96 307.52 226.23 307.52 227.25 308.16C227.25 307.37 227.25 304.6 227.25 304.21Z" id="cFu9kazSo"></path></defs><g><g><use xlink:href="#d1OXeflb88" opacity="1" fill="#326ce5" fill-opacity="1"></use><g><use xlink:href="#d1OXeflb88" opacity="1" fill-opacity="0" stroke="#000000" stroke-width="1" stroke-opacity="0"></use></g></g><g><use xlink:href="#h2p5MYpv4" opacity="1" fill="#ffffff" fill-opacity="1"></use><g><use xlink:href="#h2p5MYpv4" opacity="1" fill-opacity="0" stroke="#000000" stroke-width="1" stroke-opacity="0"></use></g></g><g><use xlink:href="#a21777PIM" opacity="1" fill="#ffffff" fill-opacity="1"></use><g><use xlink:href="#a21777PIM" opacity="1" fill-opacity="0" stroke="#000000" stroke-width="1" stroke-opacity="0"></use></g></g><g><use xlink:href="#a1AXTiWrGR" opacity="1" fill="#ffffff" fill-opacity="1"></use><g><use xlink:href="#a1AXTiWrGR" opacity="1" fill-opacity="0" stroke="#000000" stroke-width="1" stroke-opacity="0"></use></g></g><g><use xlink:href="#e2J1oVwm" opacity="1" fill="#ffffff" fill-opacity="1"></use><g><use xlink:href="#e2J1oVwm" opacity="1" fill-opacity="0" stroke="#000000" stroke-width="1" stroke-opacity="0"></use></g></g><g><use xlink:href="#c3jH9eve1N" opacity="1" fill="#ffffff" fill-opacity="1"></use><g><use xlink:href="#c3jH9eve1N" opacity="1" fill-opacity="0" stroke="#000000" stroke-width="1" stroke-opacity="0"></use></g></g><g><use xlink:href="#apwIIz9kA" opacity="1" fill="#ffffff" fill-opacity="1"></use><g><use xlink:href="#apwIIz9kA" opacity="1" fill-opacity="0" stroke="#000000" stroke-width="1" stroke-opacity="0"></use></g></g><g><use xlink:href="#g10132hEQU" opacity="1" fill="#ffffff" fill-opacity="1"></use><g><use xlink:href="#g10132hEQU" opacity="1" fill-opacity="0" stroke="#000000" stroke-width="1" stroke-opacity="0"></use></g></g><g><use xlink:href="#bpALbZpqm" opacity="1" fill="#ffffff" fill-opacity="1"></use><g><use xlink:href="#bpALbZpqm" opacity="1" fill-opacity="0" stroke="#000000" stroke-width="1" stroke-opacity="0"></use></g></g><g><use xlink:href="#f1wjUkR5VU" opacity="1" fill="#ffffff" fill-opacity="1"></use><g><use xlink:href="#f1wjUkR5VU" opacity="1" fill-opacity="0" stroke="#000000" stroke-width="1" stroke-opacity="0"></use></g></g><g><use xlink:href="#b1cwCqiOV9" opacity="1" fill="#ffffff" fill-opacity="1"></use><g><use xlink:href="#b1cwCqiOV9" opacity="1" fill-opacity="0" stroke="#000000" stroke-width="1" stroke-opacity="0"></use></g></g><g><use xlink:href="#f4cniuHPc0" opacity="1" fill="#ffffff" fill-opacity="1"></use><g><use xlink:href="#f4cniuHPc0" opacity="1" fill-opacity="0" stroke="#000000" stroke-width="1" stroke-opacity="0"></use></g></g><g><use xlink:href="#bh6ZDON2P" opacity="1" fill="#ffffff" fill-opacity="1"></use><g><use xlink:href="#bh6ZDON2P" opacity="1" fill-opacity="0" stroke="#000000" stroke-width="1" stroke-opacity="0"></use></g></g><g><use xlink:href="#a5v7U0Y9S5" opacity="1" fill="#ffffff" fill-opacity="1"></use><g><use xlink:href="#a5v7U0Y9S5" opacity="1" fill-opacity="0" stroke="#000000" stroke-width="1" stroke-opacity="0"></use></g></g><g><use xlink:href="#cX6f2jn9U" opacity="1" fill="#ffffff" fill-opacity="1"></use><g><use xlink:href="#cX6f2jn9U" opacity="1" fill-opacity="0" stroke="#000000" stroke-width="1" stroke-opacity="0"></use></g></g><g><use xlink:href="#fmTo60khr" opacity="1" fill="#ffffff" fill-opacity="1"></use><g><use xlink:href="#fmTo60khr" opacity="1" fill-opacity="0" stroke="#000000" stroke-width="1" stroke-opacity="0"></use></g></g><g><use xlink:href="#c5tZGrxF" opacity="1" fill="#ffffff" fill-opacity="1"></use><g><use xlink:href="#c5tZGrxF" opacity="1" fill-opacity="0" stroke="#000000" stroke-width="1" stroke-opacity="0"></use></g></g><g><use xlink:href="#c1pLCxCt4R" opacity="1" fill="#ffffff" fill-opacity="1"></use><g><use xlink:href="#c1pLCxCt4R" opacity="1" fill-opacity="0" stroke="#000000" stroke-width="1" stroke-opacity="0"></use></g></g><g><use xlink:href="#agX8uTNt5" opacity="1" fill="#ffffff" fill-opacity="1"></use><g><use xlink:href="#agX8uTNt5" opacity="1" fill-opacity="0" stroke="#000000" stroke-width="1" stroke-opacity="0"></use></g></g><g><use xlink:href="#a8gmQ39E8" opacity="1" fill="#ffffff" fill-opacity="1"></use><g><use xlink:href="#a8gmQ39E8" opacity="1" fill-opacity="0" stroke="#000000" stroke-width="1" stroke-opacity="0"></use></g></g><g><use xlink:href="#btztXZWwn" opacity="1" fill="#ffffff" fill-opacity="1"></use><g><use xlink:href="#btztXZWwn" opacity="1" fill-opacity="0" stroke="#000000" stroke-width="1" stroke-opacity="0"></use></g></g><g><use xlink:href="#b72O8cQ4J" opacity="1" fill="#ffffff" fill-opacity="1"></use><g><use xlink:href="#b72O8cQ4J" opacity="1" fill-opacity="0" stroke="#000000" stroke-width="1" stroke-opacity="0"></use></g></g><g><use xlink:href="#c57zxf6aKs" opacity="1" fill="#ffffff" fill-opacity="1"></use><g><use xlink:href="#c57zxf6aKs" opacity="1" fill-opacity="0" stroke="#000000" stroke-width="1" stroke-opacity="0"></use></g></g><g><use xlink:href="#a1BuZcpps2" opacity="1" fill="#ffffff" fill-opacity="1"></use><g><use xlink:href="#a1BuZcpps2" opacity="1" fill-opacity="0" stroke="#000000" stroke-width="1" stroke-opacity="0"></use></g></g><g><use xlink:href="#a4tVIMwYP" opacity="1" fill="#ffffff" fill-opacity="1"></use><g><use xlink:href="#a4tVIMwYP" opacity="1" fill-opacity="0" stroke="#000000" stroke-width="1" stroke-opacity="0"></use></g></g><g><use xlink:href="#c2t3lrWOp" opacity="1" fill="#ffffff" fill-opacity="1"></use><g><use xlink:href="#c2t3lrWOp" opacity="1" fill-opacity="0" stroke="#000000" stroke-width="1" stroke-opacity="0"></use></g></g><g><use xlink:href="#cFu9kazSo" opacity="1" fill="#ffffff" fill-opacity="1"></use><g><use xlink:href="#cFu9kazSo" opacity="1" fill-opacity="0" stroke="#000000" stroke-width="1" stroke-opacity="0"></use></g></g></g></svg>