<?xml version="1.0" encoding="UTF-8" standalone="no"?>
<!DOCTYPE svg PUBLIC "-//W3C//DTD SVG 1.1//EN" "http://www.w3.org/Graphics/SVG/1.1/DTD/svg11.dtd">
<svg version="1.1" xmlns="http://www.w3.org/2000/svg" xmlns:xlink="http://www.w3.org/1999/xlink" preserveAspectRatio="xMidYMid meet" viewBox="371.2500079071501 20.301977932662496 259.4324568031218 252.73290371000002" width="255.43" height="248.73"><defs><path d="M438.44 258.64C432.66 251.45 386.42 193.98 380.64 186.79C376.84 182 375.35 175.89 376.84 169.95C378.9 160.98 395.42 89.23 397.48 80.26C398.8 74.32 402.77 69.53 408.22 66.89C416.58 62.89 483.43 30.91 491.79 26.92C494.43 25.6 497.41 24.94 500.38 24.94C503.35 24.94 506.32 25.6 508.97 26.92C517.32 30.9 584.18 62.74 592.54 66.72C597.99 69.36 601.95 74.15 603.27 80.1C605.34 89.07 621.86 160.81 623.92 169.78C625.24 175.73 623.92 181.84 620.12 186.63C614.34 193.81 568.1 251.29 562.31 258.47C558.52 263.1 552.9 265.91 546.95 265.91C540.74 265.92 509.69 265.97 453.8 266.07L453.8 266.07C446.1 264.31 440.98 261.83 438.44 258.64Z" id="a3OEM8QZ2J"></path><path d="M506.99 30.55C515.34 34.53 582.2 66.37 590.56 70.35C594.85 72.5 598.15 76.47 599.15 81.09C601.21 90.06 617.73 161.8 619.79 170.77C620.95 175.56 619.79 180.52 616.65 184.32C610.87 191.5 564.63 248.98 558.85 256.16C555.87 259.96 551.25 262.11 546.46 262.11C537.19 262.11 463.07 262.11 453.8 262.11C449.01 262.11 444.39 259.96 441.42 256.16C435.64 248.98 389.39 191.5 383.61 184.32C380.64 180.52 379.48 175.56 380.47 170.77C382.54 161.8 399.05 90.06 401.12 81.09C402.27 76.3 405.41 72.34 409.71 70.35C418.06 66.36 484.92 34.38 493.28 30.39C495.42 29.56 497.9 29.06 500.21 29.06C500.21 29.06 500.21 29.06 500.21 29.06C503.3 29.39 505.55 29.89 506.99 30.55ZM500.21 21.3C496.75 21.3 493.28 22.13 489.97 23.61C481.62 27.61 414.76 59.59 406.4 63.58C399.8 66.72 395.17 72.5 393.52 79.6C391.46 88.57 374.94 160.32 372.87 169.29C371.22 176.39 372.87 183.66 377.5 189.44C383.28 196.62 429.52 254.1 435.31 261.28C439.76 266.9 446.54 270.03 453.64 270.03C462.9 270.03 537.03 270.03 546.29 270.03C553.4 270.03 560.17 266.9 564.63 261.28C570.41 254.1 616.65 196.62 622.43 189.44C627.06 183.82 628.71 176.39 627.06 169.29C624.99 160.32 608.48 88.57 606.41 79.6C604.76 72.5 600.14 66.72 593.53 63.58C585.21 59.59 518.61 27.61 510.29 23.61C507.15 22.13 503.68 21.3 500.21 21.3C500.21 21.3 500.21 21.3 500.21 21.3L500.21 21.3C500.21 21.3 500.21 21.3 500.21 21.3Z" id="brBI70xRs"></path><path d="M539.93 149.82C539.93 149.82 539.93 149.82 539.93 149.82C539.86 149.82 539.86 149.82 539.93 149.82C539.93 149.82 539.87 149.82 539.86 149.82C539.79 149.82 539.72 149.82 539.72 149.75C539.58 149.75 539.44 149.67 539.29 149.67C538.8 149.59 538.37 149.52 537.94 149.52C537.73 149.52 537.51 149.52 537.23 149.44C537.22 149.44 537.17 149.44 537.16 149.44C535.66 149.29 534.46 149.14 533.32 148.76C532.82 148.53 532.68 148.23 532.53 147.92C532.53 147.85 532.46 147.85 532.46 147.77C532.46 147.77 532.46 147.77 532.46 147.77C531.91 147.59 531.6 147.49 531.54 147.47C531.96 143.97 531.82 140.32 531.04 136.75C530.26 133.18 528.91 129.83 527.05 126.79C527.1 126.75 527.34 126.52 527.77 126.11C527.77 126.02 527.77 125.97 527.77 125.96C527.77 125.58 527.84 125.2 528.12 124.82C528.98 123.98 530.04 123.3 531.32 122.46C531.32 122.46 531.32 122.46 531.32 122.46C531.54 122.31 531.75 122.23 531.96 122.08C532.39 121.85 532.75 121.63 533.17 121.32C533.25 121.25 533.39 121.17 533.53 121.02C533.6 120.94 533.67 120.94 533.67 120.87C533.67 120.87 533.67 120.87 533.67 120.87C534.67 119.95 534.88 118.43 534.17 117.45C533.81 116.91 533.17 116.61 532.53 116.61C531.96 116.61 531.47 116.84 530.97 117.22C530.97 117.22 530.97 117.22 530.97 117.22C530.97 117.22 530.97 117.22 530.97 117.22C530.9 117.29 530.9 117.29 530.83 117.37C530.68 117.45 530.61 117.6 530.47 117.67C530.11 118.05 529.83 118.36 529.55 118.74C529.4 118.89 529.26 119.12 529.05 119.27C529.05 119.27 529.05 119.27 529.05 119.27C528.05 120.41 527.13 121.32 526.2 122.01C525.99 122.16 525.77 122.23 525.56 122.23C525.42 122.23 525.28 122.23 525.13 122.16C525.12 122.16 525.08 122.16 524.99 122.16L524.99 122.16C524.48 122.52 524.19 122.73 524.14 122.77C523.21 121.7 522.22 120.79 521.22 119.88C516.95 116.31 511.76 114.1 506.35 113.57C506.34 113.47 506.29 112.68 506.28 112.58C506.21 112.51 506.21 112.51 506.14 112.43C505.92 112.2 505.64 111.98 505.57 111.44C505.5 110.23 505.64 108.86 505.78 107.34C505.78 107.33 505.78 107.27 505.78 107.26C505.78 107.04 505.85 106.73 505.92 106.5C505.99 106.05 506.06 105.59 506.14 105.06C506.14 105.03 506.14 104.88 506.14 104.6L506.14 104.38L506.14 104.38C506.14 104.38 506.14 104.38 506.14 104.38C506.14 103.01 505.14 101.87 503.93 101.87C503.36 101.87 502.79 102.17 502.36 102.63C501.94 103.08 501.72 103.69 501.72 104.38C501.72 104.38 501.72 104.38 501.72 104.38L501.72 104.38L501.72 104.53C501.72 104.8 501.72 104.95 501.72 104.98C501.72 105.52 501.8 105.97 501.94 106.43C502.01 106.66 502.01 106.88 502.08 107.19C502.08 107.19 502.08 107.26 502.08 107.26C502.22 108.78 502.44 110.15 502.29 111.37C502.22 111.9 501.94 112.13 501.72 112.36C501.65 112.43 501.65 112.43 501.58 112.51C501.58 112.51 501.58 112.51 501.58 112.51C501.54 113.1 501.52 113.43 501.51 113.5C500.23 113.65 498.95 113.8 497.67 114.1C492.19 115.39 487.35 118.36 483.58 122.61C483.53 122.58 483.3 122.4 482.87 122.08C482.78 122.08 482.74 122.08 482.73 122.08C482.58 122.08 482.44 122.16 482.3 122.16C482.09 122.16 481.87 122.08 481.66 121.93C480.73 121.25 479.81 120.26 478.81 119.12C478.81 119.12 478.81 119.12 478.81 119.12C478.67 118.97 478.53 118.74 478.31 118.59C478.03 118.21 477.75 117.9 477.39 117.52C477.32 117.45 477.18 117.37 477.03 117.22C476.96 117.14 476.89 117.14 476.89 117.07C476.89 117.07 476.89 117.07 476.89 117.07C476.46 116.69 475.9 116.46 475.33 116.46C474.69 116.46 474.05 116.76 473.69 117.29C472.98 118.28 473.19 119.8 474.19 120.71C474.19 120.71 474.19 120.71 474.19 120.71C474.19 120.71 474.19 120.71 474.19 120.71C474.26 120.71 474.26 120.79 474.33 120.79C474.47 120.87 474.54 121.02 474.69 121.09C475.11 121.4 475.47 121.63 475.9 121.85C476.11 121.93 476.32 122.08 476.54 122.23C476.54 122.23 476.54 122.23 476.54 122.23C477.82 123.07 478.88 123.75 479.74 124.59C480.09 124.97 480.09 125.35 480.09 125.73C480.09 125.74 480.09 125.79 480.09 125.88L480.09 125.88C480.52 126.29 480.76 126.52 480.8 126.57C480.66 126.79 480.52 126.95 480.45 127.17C476.89 133.18 475.54 140.25 476.46 147.24C476.37 147.27 475.63 147.51 475.54 147.54C475.54 147.62 475.47 147.62 475.47 147.69C475.33 148 475.11 148.3 474.69 148.53C473.62 148.91 472.34 149.06 470.84 149.21C470.84 149.21 470.78 149.21 470.77 149.21C470.56 149.21 470.27 149.21 470.06 149.29C469.63 149.29 469.21 149.37 468.71 149.44C468.57 149.44 468.42 149.52 468.28 149.52C468.21 149.52 468.14 149.52 468.07 149.59C468.07 149.59 468.07 149.59 468.07 149.59C468.07 149.59 468.07 149.59 468.07 149.59C466.79 149.9 466 151.19 466.22 152.41C466.43 153.47 467.36 154.15 468.5 154.15C468.71 154.15 468.85 154.15 469.06 154.08C469.06 154.08 469.06 154.08 469.06 154.08C469.06 154.08 469.06 154.08 469.06 154.08C469.14 154.08 469.21 154.08 469.21 154C469.35 154 469.49 153.93 469.63 153.93C470.13 153.77 470.49 153.62 470.91 153.39C471.13 153.32 471.34 153.17 471.55 153.09C471.56 153.09 471.62 153.09 471.63 153.09C472.98 152.56 474.19 152.1 475.33 151.95C475.34 151.95 475.45 151.95 475.47 151.95C475.9 151.95 476.18 152.18 476.39 152.33C476.46 152.33 476.46 152.41 476.54 152.41C476.54 152.41 476.54 152.41 476.54 152.41C477.13 152.31 477.47 152.26 477.53 152.25C479.24 157.88 482.51 162.89 486.85 166.54C487.85 167.38 488.85 168.06 489.91 168.75C489.87 168.84 489.53 169.63 489.49 169.73C489.49 169.81 489.56 169.81 489.56 169.89C489.7 170.19 489.84 170.57 489.7 171.1C489.27 172.24 488.63 173.38 487.85 174.67C487.85 174.68 487.85 174.74 487.85 174.75C487.71 174.98 487.56 175.13 487.42 175.36C487.14 175.74 486.92 176.12 486.64 176.57C486.57 176.65 486.5 176.8 486.43 176.95C486.43 177.03 486.35 177.11 486.35 177.11C486.35 177.11 486.35 177.11 486.35 177.11C486.35 177.11 486.35 177.11 486.35 177.11C485.79 178.4 486.21 179.84 487.28 180.37C487.56 180.53 487.85 180.6 488.13 180.6C488.99 180.6 489.84 179.99 490.27 179.16C490.27 179.16 490.27 179.16 490.27 179.16C490.27 179.16 490.27 179.16 490.27 179.16C490.27 179.08 490.34 179.01 490.34 179.01C490.41 178.85 490.48 178.7 490.55 178.63C490.77 178.09 490.84 177.71 490.98 177.26C491.05 177.03 491.12 176.8 491.19 176.57C491.19 176.57 491.19 176.57 491.19 176.57C491.69 175.05 492.05 173.84 492.69 172.77C492.97 172.32 493.33 172.24 493.61 172.09C493.68 172.09 493.68 172.09 493.75 172.01C493.75 172.01 493.75 172.01 493.75 172.01C494.05 171.42 494.22 171.09 494.25 171.03C497.38 172.32 500.8 173 504.21 173C506.28 173 508.41 172.77 510.4 172.24C511.69 171.94 512.9 171.56 514.1 171.1C514.15 171.19 514.49 171.85 514.53 171.94C514.6 171.94 514.6 171.94 514.67 172.01C515.03 172.09 515.31 172.24 515.6 172.7C516.17 173.76 516.6 175.05 517.09 176.5C517.09 176.5 517.09 176.57 517.09 176.57C517.16 176.8 517.24 177.03 517.31 177.26C517.45 177.71 517.52 178.17 517.73 178.63C517.8 178.78 517.88 178.85 517.95 179.01C517.95 179.08 518.02 179.16 518.02 179.16C518.02 179.16 518.02 179.16 518.02 179.16C518.02 179.16 518.02 179.16 518.02 179.16C518.45 180.07 519.3 180.6 520.15 180.6C520.44 180.6 520.72 180.53 521.01 180.37C521.5 180.07 521.93 179.61 522.07 179.01C522.22 178.4 522.22 177.71 521.93 177.11C521.93 177.11 521.93 177.11 521.93 177.11C521.93 177.11 521.93 177.11 521.93 177.11C521.93 177.03 521.86 177.03 521.86 176.95C521.79 176.8 521.72 176.65 521.65 176.57C521.43 176.12 521.15 175.74 520.86 175.36C520.72 175.13 520.58 174.98 520.44 174.75C520.44 174.74 520.44 174.68 520.44 174.67C519.65 173.38 518.94 172.24 518.59 171.1C518.45 170.57 518.59 170.27 518.66 169.89C518.66 169.81 518.73 169.81 518.73 169.73C518.73 169.73 518.73 169.73 518.73 169.73C518.52 169.19 518.4 168.88 518.37 168.82C522.15 166.47 525.35 163.12 527.77 159.02C529.05 156.89 530.04 154.53 530.76 152.18C530.84 152.19 531.52 152.31 531.61 152.33C531.68 152.33 531.68 152.25 531.75 152.25C532.04 152.1 532.25 151.87 532.68 151.87C532.69 151.87 532.8 151.87 532.82 151.87C533.96 152.03 535.17 152.48 536.52 153.01C536.53 153.01 536.58 153.01 536.59 153.01C536.8 153.09 537.02 153.24 537.23 153.32C537.66 153.55 538.01 153.7 538.51 153.85C538.65 153.85 538.8 153.93 538.94 153.93C539.01 153.93 539.08 153.93 539.15 154C539.15 154 539.15 154 539.15 154C539.36 154.08 539.51 154.08 539.72 154.08C540.79 154.08 541.71 153.32 542 152.33C542 151.42 541.21 150.2 539.93 149.82C539.93 149.82 539.93 149.82 539.93 149.82L539.93 149.82ZM503.86 147.69L500.73 146.1L499.95 142.53L502.08 139.64L505.57 139.64L507.7 142.53L506.99 146.1L506.99 146.1L503.86 147.69ZM526.06 145.87C524.97 145.54 516.26 142.86 515.17 142.53C514.18 142.22 513.61 141.16 513.82 140.09C513.89 139.79 514.03 139.49 514.25 139.26C515.11 138.43 522 131.8 522.86 130.97C524.07 133.1 524.99 135.53 525.56 138.19C525.56 138.19 525.56 138.19 525.56 138.19C526.04 141.64 526.2 144.2 526.06 145.87ZM510.12 133.48C509.34 134.01 508.27 133.86 507.63 133.03C507.42 132.8 507.35 132.49 507.27 132.19C507.21 130.95 506.7 121.04 506.63 119.8C511.54 120.41 516.03 122.77 519.44 126.41C519.44 126.41 519.44 126.41 519.44 126.41C513.85 130.66 510.74 133.01 510.12 133.48ZM501.08 119.73C501.02 120.94 500.51 130.67 500.44 131.89C500.37 132.95 499.59 133.86 498.52 133.86C498.24 133.86 497.88 133.79 497.67 133.63C496.72 132.91 489.15 127.14 488.2 126.41C491.12 123.3 494.75 121.17 498.81 120.18C498.81 120.18 498.81 120.18 498.81 120.18C499.8 119.98 500.56 119.83 501.08 119.73ZM493.26 139.03C494.04 139.71 494.11 141.01 493.47 141.84C493.26 142.15 492.97 142.37 492.62 142.45C491.51 142.79 482.69 145.53 481.59 145.87C481.16 140.7 482.23 135.46 484.79 130.97C484.79 130.97 484.79 130.97 484.79 130.97C489.87 135.81 492.69 138.49 493.26 139.03ZM494.18 149.52C495.11 149.44 495.96 150.13 496.17 151.11C496.25 151.57 496.25 151.95 496.1 152.33C496.1 152.33 496.1 152.33 496.1 152.33C493.5 159.03 492.05 162.76 491.76 163.5C487.78 160.77 484.58 156.59 482.87 151.57C482.87 151.57 482.87 151.57 482.87 151.57C489.66 150.34 493.43 149.65 494.18 149.52ZM503.86 167.3C501.37 167.3 498.95 166.85 496.67 166.09C497.23 165 501.73 156.3 502.29 155.22C502.86 154.53 503.79 154.23 504.57 154.69C504.93 154.91 505.21 155.22 505.42 155.52C505.42 155.52 505.42 155.52 505.42 155.52C508.71 161.86 510.54 165.38 510.9 166.09C510.26 166.31 509.55 166.47 508.84 166.69C508.84 166.69 508.84 166.69 508.84 166.69C506.66 167.1 505 167.3 503.86 167.3ZM515.88 163.5C515.44 162.35 511.85 153.17 511.4 152.03C511.19 151.11 511.54 150.13 512.4 149.67C512.68 149.52 513.04 149.44 513.39 149.44C514.53 149.65 523.64 151.29 524.78 151.49C524.35 153.17 523.64 154.69 522.71 156.13C522.71 156.13 522.71 156.13 522.71 156.13C519.96 159.78 517.69 162.24 515.88 163.5Z" id="arD56g15k"></path><path d="M423.83 145.04C425.29 147.92 428.51 148.9 431.04 147.24C433.56 145.58 434.42 141.9 432.96 139.02C432.96 139.02 432.96 139.02 432.96 139.02C431.51 136.14 428.28 135.15 425.76 136.82C423.24 138.48 422.38 142.16 423.83 145.04ZM448.3 141.99C448.7 141.5 449 141.12 449.08 141.02C453.82 134.94 455.82 128.84 453.96 125.18C452.19 121.66 446.9 120.61 440.28 122.08C439.3 122.3 438.53 122.53 438.33 122.58C438.15 121.85 437.98 121.27 437.94 121.13C435.69 113.4 432.07 108.37 428.36 108.38C424.8 108.38 421.37 113.09 419.17 120.37C418.85 121.44 418.64 122.32 418.58 122.54C417.93 122.36 417.41 122.24 417.28 122.21C410.29 120.57 404.67 121.65 402.82 125.31C401.04 128.83 402.9 134.58 407.33 140.39C407.99 141.25 408.55 141.9 408.68 142.07C408.14 142.71 407.62 143.36 407.14 144C402.81 149.72 401.06 155.38 402.83 158.88C404.66 162.5 410.21 163.68 416.96 162.16C417.78 161.98 418.43 161.79 418.59 161.74C418.89 162.93 419.18 163.86 419.25 164.09C421.43 171.23 424.84 175.78 428.39 175.78C432.05 175.78 435.71 170.89 437.94 163.45C438.11 162.86 438.28 162.25 438.44 161.63C439.48 161.92 440.33 162.1 440.55 162.15C447.05 163.56 452.21 162.45 453.98 158.95C455.81 155.33 453.92 149.26 449.39 143.35C448.87 142.67 448.41 142.12 448.3 141.99ZM416.77 125.03C417.35 125.16 417.83 125.3 417.95 125.33C417.36 128.3 416.94 131.32 416.7 134.35C414.53 136.1 412.45 138.01 410.49 140.06C410.06 139.55 409.64 139.03 409.23 138.49C409.23 138.49 409.23 138.49 409.23 138.49C405.43 133.52 403.93 128.87 405 126.75C406.14 124.49 410.74 123.61 416.77 125.03ZM412.3 142.08C413.57 140.74 414.97 139.41 416.47 138.11C416.39 140.1 416.4 141.69 416.39 142.09C416.39 143.41 416.42 144.73 416.48 146.06C414.54 144.3 413.14 142.97 412.3 142.08ZM408.68 159.65C407.25 159.52 405.92 158.72 405.02 157.44C403.94 155.31 405.35 150.77 409.05 145.88C409.74 144.96 410.34 144.27 410.49 144.09C412.45 146.15 414.52 148.06 416.71 149.82C416.95 152.89 417.37 155.94 417.96 158.96C417.47 159.1 416.97 159.22 416.47 159.34C413.01 159.84 410.41 159.95 408.68 159.65ZM434.43 130.17C432.93 129.19 431.7 128.47 431.4 128.28C433.15 127.44 434.87 126.72 436.53 126.14C436.92 128.15 437.22 130.19 437.44 132.24C435.95 131.17 434.73 130.38 434.43 130.17ZM428.36 111.26C430.64 111.26 433.61 115.36 435.55 122.03C435.73 122.69 435.87 123.21 435.9 123.35C433.36 124.25 430.86 125.34 428.44 126.62C426.03 125.33 423.55 124.22 421.01 123.31C421.18 122.64 421.36 121.97 421.56 121.3C424.66 114.61 426.93 111.26 428.36 111.26ZM425.48 128.27C422.38 130.09 420.04 131.85 419.44 132.25C419.68 130.1 419.99 128.04 420.38 126.1C422.11 126.72 423.81 127.45 425.48 128.27ZM422.42 153.98C423.96 155 425.23 155.73 425.54 155.92C423.86 156.77 422.14 157.52 420.39 158.17C420 156.2 419.68 154.11 419.44 151.92C420.91 152.99 422.12 153.78 422.42 153.98ZM431.89 170.38C431.89 170.38 431.89 170.38 431.89 170.38C431.08 171.74 429.81 172.65 428.39 172.9C426.24 172.9 423.49 169.25 421.63 163.14C421.3 162.06 421.08 161.18 421.02 160.96C423.57 160.02 426.07 158.88 428.49 157.56C430.93 158.84 433.44 159.94 436.01 160.85C435.87 161.41 435.71 161.97 435.55 162.52C434.2 166.2 432.98 168.82 431.89 170.38ZM431.42 155.88C432.92 154.98 434.14 154.17 434.44 153.98C436 152.95 437.18 152.07 437.49 151.86C437.29 153.94 437 156.01 436.62 158.06C434.94 157.46 433.19 156.73 431.42 155.88ZM437.77 148.21C436.31 149.33 434.78 150.43 433.18 151.48C431.59 152.53 430.01 153.5 428.47 154.37C426.03 153.03 424.16 151.78 423.68 151.49C421.35 149.96 419.58 148.55 419.12 148.22C418.98 146.18 418.92 144.13 418.91 142.08C418.92 142.08 418.92 142.08 418.92 142.08C418.91 139.01 419.1 136.56 419.12 135.94C420.57 134.81 422.09 133.71 423.67 132.68C425.25 131.63 426.85 130.67 428.44 129.8C430.85 131.14 432.7 132.38 433.17 132.67C435.5 134.2 437.29 135.58 437.74 135.9C437.87 137.96 437.94 140.01 437.94 142.07C437.84 145.75 437.78 147.8 437.77 148.21ZM451.78 126.62C452.92 128.87 451.29 133.86 447.19 139.11C447.19 139.11 447.19 139.11 447.19 139.11C446.85 139.54 446.56 139.89 446.49 139.98C444.49 137.92 442.38 136.02 440.16 134.29C439.94 131.29 439.54 128.31 438.96 125.36C439.57 125.19 440.17 125.04 440.76 124.91C447.39 124.64 451.07 125.2 451.78 126.62ZM444.69 142.01C443.32 143.45 441.88 144.81 440.39 146.08C440.46 144.08 440.45 142.47 440.46 142.07C440.46 140.72 440.43 139.36 440.38 138C442.33 139.73 443.77 141.06 444.69 142.01ZM441.01 159.32C440.06 159.12 439.25 158.88 439.05 158.83C439.61 155.85 439.99 152.83 440.2 149.8C442.41 148.04 444.52 146.1 446.5 144.01C446.85 144.42 447.18 144.83 447.49 145.24C447.49 145.24 447.49 145.24 447.49 145.24C449.27 147.44 450.67 150 451.64 152.78C452.26 154.27 452.32 155.98 451.8 157.51C450.72 159.64 446.58 160.53 441.01 159.32Z" id="g3KkEcCOt"></path><path d="M606.79 101.87C606.79 101.87 606.79 101.87 606.79 101.87C606.79 147.2 606.79 172.39 606.79 177.43C606.79 177.43 606.79 177.43 606.79 177.43C571.39 177.43 551.72 177.43 547.78 177.43C547.78 177.43 547.78 177.43 547.78 177.43C547.78 132.09 547.78 106.9 547.78 101.87C547.78 101.87 547.78 101.87 547.78 101.87C583.19 101.87 602.86 101.87 606.79 101.87Z" id="gezIeLZKZ"></path><path d="M566.81 160.28C566.81 160.28 563.77 161.95 568.98 162.52C575.29 163.2 578.51 163.1 585.46 161.86C585.46 161.86 587.29 162.94 589.84 163.88C574.26 170.21 554.57 163.52 566.81 160.28" id="aEg1ABjaU"></path><path d="M564.91 152.02C564.91 152.02 561.5 154.41 566.71 154.92C573.45 155.58 578.77 155.64 587.98 153.96C587.98 153.96 589.25 155.18 591.25 155.85C572.41 161.07 551.42 156.26 564.91 152.02" id="f8Vh1y88p"></path><path d="M580.96 138.01C584.8 142.2 579.95 145.97 579.95 145.97C579.95 145.97 589.71 141.2 585.23 135.23C581.04 129.66 577.84 126.89 595.2 117.35C595.2 117.35 567.95 123.8 580.96 138.01" id="bamkZvvAW"></path><path d="M601.58 166.38C601.58 166.38 603.83 168.14 599.1 169.5C590.1 172.08 561.65 172.86 553.75 169.6C550.91 168.43 556.24 166.81 557.91 166.47C559.66 166.11 560.66 166.18 560.66 166.18C557.5 164.07 540.24 170.32 551.89 172.11C583.67 176.99 609.82 169.91 601.58 166.38" id="e1hoBTZXZ"></path><path d="M568.28 143.46C568.28 143.46 553.81 146.72 563.15 147.9C567.1 148.4 574.96 148.29 582.29 147.71C588.28 147.23 594.29 146.21 594.29 146.21C594.29 146.21 592.18 147.07 590.65 148.06C575.96 151.72 547.57 150.01 555.75 146.27C562.66 143.1 568.28 143.46 568.28 143.46" id="ccc2WzZNK"></path><path d="M594.23 157.21C609.17 149.86 602.26 142.79 597.44 143.74C596.26 143.97 595.73 144.18 595.73 144.18C595.73 144.18 596.17 143.53 597.01 143.24C606.55 140.07 613.88 152.61 593.93 157.58C593.93 157.58 594.16 157.38 594.23 157.21" id="a4kq3rgQJ"></path><path d="M585.23 101.95C585.23 101.95 593.5 109.79 577.38 121.84C564.46 131.51 574.43 137.03 577.38 143.33C569.83 136.88 564.29 131.2 568.01 125.92C573.46 118.16 588.56 114.4 585.23 101.95" id="aHG9A9n0Q"></path><path d="M569.74 177.13C584.08 178 606.1 176.65 606.62 170.22C606.62 170.22 605.62 172.66 594.77 174.6C582.53 176.78 567.44 176.52 558.49 175.12C558.49 175.12 560.32 176.56 569.74 177.13" id="e1enJD3Hgv"></path><path d="M530.15 193.07C530.15 193.07 530.15 193.07 530.15 193.07C530.15 224.59 530.15 242.09 530.15 245.6C530.15 245.6 530.15 245.6 530.15 245.6C498.76 245.6 481.32 245.6 477.83 245.6C477.83 245.6 477.83 245.6 477.83 245.6C477.83 214.08 477.83 196.57 477.83 193.07C477.83 193.07 477.83 193.07 477.83 193.07C509.22 193.07 526.66 193.07 530.15 193.07Z" id="c1WEpXSbuN"></path><path d="M491.4 198.93C491.4 199.33 491.41 201.35 491.42 205L504.14 205L504.14 206.82C493.47 206.82 487.55 206.82 486.36 206.82C486.36 206.82 477.83 205.84 477.83 219.47C477.83 233.1 485.28 232.62 485.28 232.62C485.57 232.62 487.05 232.62 489.72 232.62C489.72 228.82 489.72 226.71 489.72 226.29C489.72 226.29 489.48 218.75 497.05 218.75C504.62 218.75 509.67 218.75 509.67 218.75C509.67 218.75 516.76 218.86 516.76 211.8C516.76 204.74 516.76 200.13 516.76 200.13C516.76 200.13 517.83 193.07 503.9 193.07C490.57 193.07 493.9 197.75 491.4 198.93ZM499.17 199.47C499.17 200.75 498.15 201.79 496.89 201.79C495.62 201.79 494.6 200.75 494.6 199.47C494.6 198.19 495.62 197.15 496.89 197.15C498.15 197.15 499.17 198.19 499.17 199.47Z" id="a1Dnsu0jf"></path><path d="M516.78 240.15C516.78 239.74 516.77 237.72 516.77 234.08L504.04 234.08L504.04 232.25C514.71 232.25 520.63 232.25 521.82 232.25C521.82 232.25 530.35 233.24 530.35 219.6C530.35 205.97 522.9 206.46 522.9 206.46C522.61 206.46 521.13 206.46 518.46 206.46C518.46 210.25 518.46 212.36 518.46 212.78C518.46 212.78 518.7 220.33 511.13 220.33C503.56 220.33 498.51 220.33 498.51 220.33C498.51 220.33 491.42 220.21 491.42 227.27C491.42 234.33 491.42 238.94 491.42 238.94C491.42 238.94 490.35 246 504.28 246C517.61 246 514.28 241.32 516.78 240.15ZM509.01 239.6C509.01 238.32 510.03 237.28 511.3 237.28C512.56 237.28 513.58 238.32 513.58 239.6C513.58 240.89 512.56 241.92 511.3 241.92C510.03 241.92 509.01 240.89 509.01 239.6Z" id="aChKB5cc7"></path><path d="M455.18 64.11C455.26 63.98 455.96 62.91 456.05 62.78C456.13 62.63 456.34 62.53 456.5 62.53C457.98 62.53 469.8 62.53 471.28 62.53C471.45 62.53 471.49 62.68 471.4 62.83C471.33 62.96 470.77 63.99 470.7 64.11C470.62 64.26 470.41 64.41 470.29 64.41C469.29 64.41 464.29 64.39 455.3 64.36C455.16 64.3 455.12 64.21 455.18 64.11Z" id="cMF8vRysF"></path><path d="M448.93 68.67C449.01 68.54 449.71 67.47 449.8 67.33C449.88 67.18 450.09 67.09 450.25 67.09C452.14 67.09 467.24 67.09 469.13 67.09C469.29 67.09 469.38 67.23 469.33 67.38C469.3 67.5 469.04 68.45 469 68.57C468.96 68.77 468.8 68.87 468.63 68.87C467.33 68.87 460.8 68.89 449.05 68.92C448.91 68.85 448.87 68.77 448.93 68.67Z" id="b491UIqKA"></path><path d="M458.94 73.18C459 73.05 459.47 72.06 459.52 71.94C459.61 71.79 459.77 71.64 459.94 71.64C460.77 71.64 467.39 71.64 468.22 71.64C468.38 71.64 468.47 71.79 468.47 71.99C468.46 72.11 468.39 73.06 468.38 73.18C468.38 73.37 468.22 73.52 468.09 73.52C467.49 73.52 464.48 73.5 459.07 73.47C458.93 73.37 458.89 73.28 458.94 73.18Z" id="bOVLzSrtY"></path><path d="M495.08 65.65C494.46 65.85 494.42 65.9 493.88 65.15C493.26 64.31 492.8 63.77 491.93 63.27C489.33 61.74 486.8 62.18 484.44 64.02C481.63 66.19 480.18 69.41 480.22 73.42C480.26 77.39 482.54 80.65 485.81 81.2C488.62 81.64 490.98 80.46 492.85 77.93C493.22 77.39 493.55 76.79 493.96 76.1C492.47 76.1 490.61 76.1 485.97 76.1C485.1 76.1 484.9 75.45 485.19 74.61C485.73 73.08 486.72 70.5 487.3 69.22C487.42 68.92 487.71 68.42 488.33 68.42C490.44 68.42 498.23 68.42 503.4 68.42C503.32 69.76 503.32 71.1 503.15 72.43C502.7 76 501.58 79.27 499.76 82.14C496.78 86.84 492.89 89.77 487.96 90.56C483.9 91.2 480.14 90.26 476.83 87.29C473.76 84.52 472.02 80.85 471.57 76.3C471.03 70.9 472.36 66.05 475.09 61.79C478.03 57.18 481.92 54.26 486.68 53.22C490.57 52.38 494.29 52.92 497.65 55.65C499.84 57.38 501.41 59.76 502.45 62.63C502.7 63.07 502.53 63.32 502.03 63.47C499.43 64.26 497.65 64.86 495.08 65.65Z" id="biBAbumxv"></path><path d="M505.64 86.5C503.19 83.97 501.66 80.75 501.17 76.94C500.42 71.34 501.7 66.39 504.52 61.99C507.54 57.23 511.18 54.76 516.11 53.72C520.33 52.82 524.3 53.32 527.9 56.24C531.17 58.92 533.2 62.53 533.74 67.28C534.44 73.97 532.83 79.42 528.98 84.07C526.25 87.39 522.9 89.47 519.05 90.41C517.93 90.66 516.81 90.71 515.74 90.86C511.97 90.76 508.53 89.47 505.64 86.5ZM525.46 69.22C524.72 64.31 520.95 61.54 517.02 62.63C513.17 63.67 510.69 66.59 509.77 71.25C509.03 75.11 510.6 79.02 513.58 80.6C515.86 81.79 518.14 81.64 520.33 80.31C523.6 78.28 525.38 75.11 525.59 70.85C525.55 70.21 525.55 69.71 525.46 69.22Z" id="b2sgw6DmAK"></path></defs><g><g><use xlink:href="#a3OEM8QZ2J" opacity="1" fill="#326de6" fill-opacity="1"></use><g><use xlink:href="#a3OEM8QZ2J" opacity="1" fill-opacity="0" stroke="#000000" stroke-width="1" stroke-opacity="0"></use></g></g><g><use xlink:href="#brBI70xRs" opacity="1" fill="#ffffff" fill-opacity="1"></use><g><use xlink:href="#brBI70xRs" opacity="1" fill-opacity="0" stroke="#000000" stroke-width="1" stroke-opacity="0"></use></g></g><g><use xlink:href="#arD56g15k" opacity="1" fill="#ffffff" fill-opacity="1"></use><g><use xlink:href="#arD56g15k" opacity="1" fill-opacity="0" stroke="#000000" stroke-width="1" stroke-opacity="0"></use></g></g><g><use xlink:href="#g3KkEcCOt" opacity="1" fill="#ffffff" fill-opacity="1"></use><g><use xlink:href="#g3KkEcCOt" opacity="1" fill-opacity="0" stroke="#000000" stroke-width="1" stroke-opacity="0"></use></g></g><g><use xlink:href="#gezIeLZKZ" opacity="1" fill="#000000" fill-opacity="0"></use><g><use xlink:href="#gezIeLZKZ" opacity="1" fill-opacity="0" stroke="#000000" stroke-width="1" stroke-opacity="0"></use></g></g><g><use xlink:href="#aEg1ABjaU" opacity="1" fill="#ffffff" fill-opacity="1"></use><g><use xlink:href="#aEg1ABjaU" opacity="1" fill-opacity="0" stroke="#000000" stroke-width="1" stroke-opacity="0"></use></g></g><g><use xlink:href="#f8Vh1y88p" opacity="1" fill="#ffffff" fill-opacity="1"></use><g><use xlink:href="#f8Vh1y88p" opacity="1" fill-opacity="0" stroke="#000000" stroke-width="1" stroke-opacity="0"></use></g></g><g><use xlink:href="#bamkZvvAW" opacity="1" fill="#ffffff" fill-opacity="1"></use><g><use xlink:href="#bamkZvvAW" opacity="1" fill-opacity="0" stroke="#000000" stroke-width="1" stroke-opacity="0"></use></g></g><g><use xlink:href="#e1hoBTZXZ" opacity="1" fill="#ffffff" fill-opacity="1"></use><g><use xlink:href="#e1hoBTZXZ" opacity="1" fill-opacity="0" stroke="#000000" stroke-width="1" stroke-opacity="0"></use></g></g><g><use xlink:href="#ccc2WzZNK" opacity="1" fill="#ffffff" fill-opacity="1"></use><g><use xlink:href="#ccc2WzZNK" opacity="1" fill-opacity="0" stroke="#000000" stroke-width="1" stroke-opacity="0"></use></g></g><g><use xlink:href="#a4kq3rgQJ" opacity="1" fill="#ffffff" fill-opacity="1"></use><g><use xlink:href="#a4kq3rgQJ" opacity="1" fill-opacity="0" stroke="#000000" stroke-width="1" stroke-opacity="0"></use></g></g><g><use xlink:href="#aHG9A9n0Q" opacity="1" fill="#ffffff" fill-opacity="1"></use><g><use xlink:href="#aHG9A9n0Q" opacity="1" fill-opacity="0" stroke="#000000" stroke-width="1" stroke-opacity="0"></use></g></g><g><use xlink:href="#e1enJD3Hgv" opacity="1" fill="#ffffff" fill-opacity="1"></use><g><use xlink:href="#e1enJD3Hgv" opacity="1" fill-opacity="0" stroke="#000000" stroke-width="1" stroke-opacity="0"></use></g></g><g><use xlink:href="#c1WEpXSbuN" opacity="1" fill="#000000" fill-opacity="0"></use><g><use xlink:href="#c1WEpXSbuN" opacity="1" fill-opacity="0" stroke="#000000" stroke-width="1" stroke-opacity="0"></use></g></g><g><use xlink:href="#a1Dnsu0jf" opacity="1" fill="#ffffff" fill-opacity="1"></use><g><use xlink:href="#a1Dnsu0jf" opacity="1" fill-opacity="0" stroke="#000000" stroke-width="1" stroke-opacity="0"></use></g></g><g><use xlink:href="#aChKB5cc7" opacity="1" fill="#ffffff" fill-opacity="1"></use><g><use xlink:href="#aChKB5cc7" opacity="1" fill-opacity="0" stroke="#000000" stroke-width="1" stroke-opacity="0"></use></g></g><g><use xlink:href="#cMF8vRysF" opacity="1" fill="#ffffff" fill-opacity="1"></use><g><use xlink:href="#cMF8vRysF" opacity="1" fill-opacity="0" stroke="#000000" stroke-width="1" stroke-opacity="0"></use></g></g><g><use xlink:href="#b491UIqKA" opacity="1" fill="#ffffff" fill-opacity="1"></use><g><use xlink:href="#b491UIqKA" opacity="1" fill-opacity="0" stroke="#000000" stroke-width="1" stroke-opacity="0"></use></g></g><g><use xlink:href="#bOVLzSrtY" opacity="1" fill="#ffffff" fill-opacity="1"></use><g><use xlink:href="#bOVLzSrtY" opacity="1" fill-opacity="0" stroke="#000000" stroke-width="1" stroke-opacity="0"></use></g></g><g><use xlink:href="#biBAbumxv" opacity="1" fill="#ffffff" fill-opacity="1"></use><g><use xlink:href="#biBAbumxv" opacity="1" fill-opacity="0" stroke="#000000" stroke-width="1" stroke-opacity="0"></use></g></g><g><use xlink:href="#b2sgw6DmAK" opacity="1" fill="#ffffff" fill-opacity="1"></use><g><use xlink:href="#b2sgw6DmAK" opacity="1" fill-opacity="0" stroke="#000000" stroke-width="1" stroke-opacity="0"></use></g></g></g></svg>