<?xml version="1.0" encoding="UTF-8" standalone="no"?>
<!DOCTYPE svg PUBLIC "-//W3C//DTD SVG 1.1//EN" "http://www.w3.org/Graphics/SVG/1.1/DTD/svg11.dtd">
<svg version="1.1" xmlns="http://www.w3.org/2000/svg" xmlns:xlink="http://www.w3.org/1999/xlink" preserveAspectRatio="xMidYMid meet" viewBox="192.9585250846799 215.81612841961362 214.6787333322845 220.5479809145184" width="210.68" height="216.55"><defs><path d="M293.2 218.35C285.87 222.06 227.18 251.71 219.84 255.42C216.01 257.35 213.23 261.03 212.27 265.41C210.48 273.73 196.11 340.29 194.32 348.61C193.46 352.52 194.15 356.61 196.29 359.96C196.54 360.36 196.8 360.75 197.08 361.13C227.49 401.19 244.39 423.45 247.77 427.9C250.44 431.38 254.47 433.38 258.71 433.36C266.83 433.36 331.87 433.36 340 433.36C344.25 433.37 348.28 431.27 350.95 427.83C356.02 421.16 396.54 367.73 401.61 361.05C404.27 357.57 405.26 352.96 404.24 348.6C402.44 340.27 387.98 273.65 386.17 265.32C385.21 260.94 382.42 257.27 378.6 255.34C371.27 251.64 312.68 222.05 305.36 218.36C303.24 217.25 300.91 216.73 298.56 216.83C296.74 216.95 294.9 217.46 293.2 218.35Z" id="a3rBkHr7l"></path><path d="M324.3 352.8C324.3 352.8 324.3 352.8 324.3 352.8C324.3 383.08 324.3 399.9 324.3 403.27C324.3 403.27 324.3 403.27 324.3 403.27C294.3 403.27 277.63 403.27 274.3 403.27C274.3 403.27 274.3 403.27 274.3 403.27C274.3 372.99 274.3 356.16 274.3 352.8C274.3 352.8 274.3 352.8 274.3 352.8C304.3 352.8 320.96 352.8 324.3 352.8Z" id="fH8mNqZPh"></path><path d="M287.27 358.43C287.27 358.82 287.27 360.76 287.28 364.26L299.44 364.26L299.44 366.01C289.25 366.01 283.58 366.01 282.45 366.01C282.45 366.01 274.3 365.07 274.3 378.16C274.3 391.26 281.41 390.8 281.41 390.8C281.7 390.8 283.11 390.8 285.66 390.8C285.66 387.15 285.66 385.12 285.66 384.72C285.66 384.72 285.43 377.47 292.66 377.47C299.9 377.47 304.72 377.47 304.72 377.47C304.72 377.47 311.5 377.58 311.5 370.8C311.5 364.02 311.5 359.58 311.5 359.58C311.5 359.58 312.53 352.8 299.21 352.8C286.47 352.8 289.66 357.3 287.27 358.43ZM294.7 358.95C294.7 360.18 293.72 361.18 292.51 361.18C291.3 361.18 290.32 360.18 290.32 358.95C290.32 357.72 291.3 356.72 292.51 356.72C293.72 356.72 294.7 357.72 294.7 358.95Z" id="db0NqfScD"></path><path d="M311.52 398.03C311.52 397.64 311.51 395.7 311.51 392.2L299.35 392.2L299.35 390.45C309.54 390.45 315.2 390.45 316.34 390.45C316.34 390.45 324.49 391.39 324.49 378.29C324.49 365.2 317.37 365.66 317.37 365.66C317.09 365.66 315.67 365.66 313.13 365.66C313.13 369.31 313.13 371.34 313.13 371.74C313.13 371.74 313.35 378.99 306.12 378.99C298.89 378.99 294.06 378.99 294.06 378.99C294.06 378.99 287.29 378.88 287.29 385.66C287.29 392.44 287.29 396.87 287.29 396.87C287.29 396.87 286.26 403.66 299.57 403.66C312.32 403.66 309.13 399.16 311.52 398.03ZM304.09 397.51C304.09 396.28 305.07 395.28 306.28 395.28C307.49 395.28 308.47 396.28 308.47 397.51C308.47 398.74 307.49 399.74 306.28 399.74C305.07 399.74 304.09 398.74 304.09 397.51Z" id="dagruz9wij"></path><path d="M266.02 283.52C266.02 283.52 266.02 283.52 266.02 283.52C266.02 322.6 266.02 344.31 266.02 348.65C266.02 348.65 266.02 348.65 266.02 348.65C230.61 348.65 210.94 348.65 207 348.65C207 348.65 207 348.65 207 348.65C207 309.58 207 287.87 207 283.52C207 283.52 207 283.52 207 283.52C242.41 283.52 262.08 283.52 266.02 283.52Z" id="c755hFiCF"></path><path d="M226.03 333.87C226.03 333.87 222.99 335.32 228.2 335.81C234.51 336.39 237.73 336.31 244.69 335.23C244.69 335.23 246.51 336.17 249.07 336.98C233.48 342.44 213.79 336.66 226.03 333.87" id="b1bno4083V"></path><path d="M224.13 326.75C224.13 326.75 220.72 328.82 225.93 329.26C232.67 329.82 237.99 329.87 247.2 328.42C247.2 328.42 248.47 329.48 250.48 330.05C231.63 334.55 210.64 330.41 224.13 326.75" id="hSbljdiKL"></path><path d="M240.19 314.68C244.03 318.29 239.18 321.54 239.18 321.54C239.18 321.54 248.93 317.43 244.45 312.28C240.27 307.48 237.06 305.1 254.42 296.87C254.42 296.87 227.17 302.43 240.19 314.68" id="a9gKugEJV"></path><path d="M260.8 339.14C260.8 339.14 263.05 340.65 258.32 341.82C249.32 344.05 220.88 344.72 212.97 341.91C210.13 340.9 215.46 339.5 217.14 339.21C218.88 338.9 219.88 338.96 219.88 338.96C216.72 337.14 199.46 342.53 211.11 344.07C242.89 348.28 269.04 342.17 260.8 339.14" id="ai0ZaAAPl"></path><path d="M227.5 319.38C227.5 319.38 213.03 322.19 222.37 323.2C226.32 323.64 234.19 323.54 241.51 323.04C247.5 322.62 253.51 321.75 253.51 321.75C253.51 321.75 251.4 322.49 249.88 323.34C235.18 326.49 206.8 325.03 214.97 321.8C221.88 319.07 227.5 319.38 227.5 319.38" id="e1JXniM1RJ"></path><path d="M253.45 331.23C268.39 324.89 261.49 318.8 256.67 319.62C255.48 319.82 254.96 319.99 254.96 319.99C254.96 319.99 255.4 319.43 256.23 319.19C265.77 316.45 273.1 327.26 253.15 331.55C253.15 331.55 253.39 331.38 253.45 331.23" id="agbPamjuH"></path><path d="M244.45 283.59C244.45 283.59 252.72 290.35 236.6 300.74C223.68 309.08 233.66 313.83 236.6 319.26C229.05 313.7 223.52 308.81 227.23 304.25C232.68 297.57 247.79 294.33 244.45 283.59" id="a2u3Ogqre4"></path><path d="M228.97 348.4C243.3 349.15 265.32 347.99 265.84 342.45C265.84 342.45 264.84 344.55 253.99 346.21C241.75 348.1 226.66 347.88 217.71 346.67C217.71 346.67 219.54 347.91 228.97 348.4" id="b2Dw1CJVVk"></path><path d="M392.81 288.53C392.81 288.53 392.81 288.53 392.81 288.53C392.81 328.97 392.81 351.44 392.81 355.93C392.81 355.93 392.81 355.93 392.81 355.93C353.71 355.93 331.98 355.93 327.64 355.93C327.64 355.93 327.64 355.93 327.64 355.93C327.64 315.49 327.64 293.02 327.64 288.53C327.64 288.53 327.64 288.53 327.64 288.53C366.74 288.53 388.47 288.53 392.81 288.53Z" id="aHbuQGQbj"></path><path d="M356.01 324.69C357.35 327.09 360.32 327.91 362.64 326.53C364.96 325.14 365.75 322.08 364.41 319.68C364.41 319.68 364.41 319.68 364.41 319.68C363.07 317.28 360.11 316.46 357.79 317.84C355.47 319.23 354.67 322.29 356.01 324.69ZM378.52 322.15C378.89 321.75 379.17 321.43 379.24 321.35C383.6 316.28 385.44 311.2 383.73 308.14C382.1 305.21 377.23 304.34 371.14 305.57C370.24 305.75 369.53 305.94 369.35 305.98C369.18 305.37 369.03 304.89 368.99 304.77C366.92 298.33 363.59 294.14 360.18 294.14C356.91 294.15 353.74 298.07 351.73 304.14C351.43 305.03 351.23 305.77 351.18 305.95C350.58 305.8 350.1 305.7 349.98 305.67C343.56 304.3 338.38 305.2 336.68 308.26C335.05 311.19 336.75 315.98 340.83 320.82C341.44 321.54 341.95 322.08 342.08 322.22C341.57 322.76 341.1 323.29 340.65 323.83C336.67 328.6 335.07 333.31 336.69 336.23C338.38 339.24 343.48 340.23 349.69 338.96C350.45 338.81 351.04 338.65 351.19 338.62C351.47 339.6 351.73 340.38 351.79 340.57C353.8 346.52 356.94 350.32 360.2 350.31C363.57 350.31 366.94 346.23 368.99 340.04C369.15 339.55 369.3 339.04 369.45 338.52C370.41 338.77 371.19 338.91 371.39 338.96C377.37 340.13 382.12 339.21 383.75 336.29C385.43 333.27 383.7 328.21 379.53 323.28C379.05 322.72 378.62 322.27 378.52 322.15ZM349.51 308.02C350.05 308.13 350.49 308.25 350.6 308.27C350.06 310.75 349.67 313.26 349.45 315.79C347.45 317.25 345.54 318.84 343.74 320.55C343.34 320.12 342.96 319.69 342.58 319.24C342.58 319.24 342.58 319.24 342.58 319.24C339.09 315.1 337.71 311.22 338.69 309.46C339.74 307.57 343.97 306.84 349.51 308.02ZM345.4 322.23C346.57 321.11 347.86 320.01 349.24 318.92C349.17 320.58 349.18 321.9 349.17 322.23C349.17 323.34 349.19 324.44 349.24 325.54C347.46 324.08 346.18 322.97 345.4 322.23ZM342.07 336.87C340.75 336.77 339.53 336.1 338.7 335.03C337.72 333.26 339.01 329.47 342.41 325.39C343.05 324.63 343.6 324.05 343.73 323.9C345.54 325.62 347.45 327.22 349.46 328.68C349.68 331.24 350.07 333.78 350.61 336.29C350.16 336.41 349.7 336.52 349.24 336.61C346.05 337.03 343.66 337.12 342.07 336.87ZM365.76 312.31C364.38 311.49 363.25 310.89 362.97 310.73C364.58 310.03 366.17 309.43 367.7 308.94C368.06 310.62 368.33 312.32 368.53 314.03C367.16 313.14 366.04 312.48 365.76 312.31ZM360.18 296.54C362.28 296.54 365.01 299.97 366.79 305.52C366.96 306.07 367.08 306.51 367.12 306.62C364.77 307.37 362.48 308.28 360.25 309.35C358.04 308.27 355.75 307.35 353.41 306.59C353.57 306.03 353.74 305.47 353.92 304.92C356.78 299.33 358.86 296.54 360.18 296.54ZM357.53 310.72C354.68 312.24 352.53 313.7 351.97 314.04C352.19 312.24 352.48 310.53 352.83 308.91C354.43 309.43 356 310.03 357.53 310.72ZM354.71 332.15C356.13 332.99 357.3 333.6 357.59 333.77C356.04 334.47 354.46 335.1 352.85 335.63C352.49 334 352.2 332.25 351.98 330.43C353.33 331.32 354.44 331.98 354.71 332.15ZM363.43 345.82C363.43 345.82 363.43 345.82 363.43 345.82C362.68 346.95 361.51 347.71 360.2 347.91C358.22 347.92 355.7 344.87 353.98 339.78C353.68 338.88 353.48 338.14 353.43 337.96C355.77 337.18 358.07 336.23 360.29 335.13C362.54 336.2 364.85 337.12 367.21 337.88C367.08 338.34 366.94 338.8 366.79 339.26C365.55 342.33 364.43 344.51 363.43 345.82ZM362.99 333.73C364.37 332.98 365.49 332.3 365.77 332.14C367.21 331.28 368.3 330.56 368.58 330.38C368.39 332.12 368.13 333.84 367.78 335.54C366.23 335.05 364.62 334.44 362.99 333.73ZM368.83 327.34C367.5 328.27 366.08 329.19 364.61 330.07C363.15 330.94 361.7 331.74 360.28 332.47C358.03 331.36 356.31 330.31 355.87 330.07C353.73 328.79 352.1 327.62 351.68 327.35C351.55 325.65 351.49 323.94 351.49 322.23C351.49 322.23 351.49 322.23 351.49 322.23C351.49 319.67 351.66 317.63 351.67 317.12C353.01 316.17 354.41 315.26 355.86 314.39C357.32 313.52 358.79 312.72 360.25 312C362.47 313.11 364.17 314.15 364.6 314.39C366.75 315.66 368.39 316.81 368.81 317.08C368.93 318.79 368.99 320.51 368.99 322.22C368.9 325.29 368.84 327 368.83 327.34ZM381.72 309.34C382.77 311.22 381.27 315.38 377.5 319.75C377.5 319.75 377.5 319.75 377.5 319.75C377.19 320.11 376.92 320.41 376.86 320.48C375.02 318.76 373.08 317.18 371.03 315.74C370.83 313.24 370.46 310.75 369.93 308.3C370.49 308.16 371.05 308.03 371.59 307.92C377.69 307.69 381.07 308.17 381.72 309.34ZM375.2 322.17C373.94 323.37 372.62 324.5 371.25 325.56C371.31 323.89 371.3 322.56 371.31 322.22C371.31 321.09 371.28 319.96 371.23 318.83C373.04 320.27 374.36 321.38 375.2 322.17ZM371.82 336.6C370.94 336.43 370.19 336.23 370.01 336.19C370.53 333.71 370.88 331.19 371.07 328.66C373.11 327.19 375.05 325.58 376.87 323.84C377.19 324.18 377.49 324.52 377.78 324.86C377.78 324.86 377.78 324.86 377.78 324.86C379.41 326.7 380.71 328.83 381.59 331.15C382.17 332.39 382.22 333.81 381.74 335.09C380.75 336.86 376.94 337.6 371.82 336.6Z" id="c4Yc5XePDP"></path><path d="M283.08 279.72C283.31 279.63 283.59 279.58 283.72 279.36" id="g18ooreVbW"></path><path d="M265.13 271.62C265.21 271.49 265.84 270.42 265.92 270.28C265.99 270.13 266.18 270.03 266.33 270.03C267.66 270.03 278.31 270.03 279.64 270.03C279.79 270.03 279.83 270.18 279.75 270.33C279.69 270.46 279.18 271.49 279.12 271.62C279.05 271.77 278.86 271.92 278.75 271.92C277.85 271.91 273.35 271.9 265.25 271.87C265.12 271.8 265.08 271.72 265.13 271.62Z" id="m64FzaEidD"></path><path d="M259.5 276.18C259.58 276.04 260.21 274.97 260.29 274.84C260.36 274.69 260.55 274.59 260.7 274.59C262.4 274.59 276 274.59 277.7 274.59C277.85 274.59 277.93 274.74 277.89 274.89C277.86 275.01 277.62 275.96 277.59 276.08C277.55 276.27 277.4 276.37 277.26 276.37C276.08 276.38 270.2 276.39 259.61 276.42C259.49 276.36 259.45 276.27 259.5 276.18Z" id="czzfANqCJ"></path><path d="M268.53 280.68C268.58 280.56 269 279.57 269.05 279.44C269.12 279.3 269.27 279.15 269.42 279.15C270.17 279.15 276.14 279.15 276.88 279.15C277.03 279.15 277.11 279.3 277.11 279.49C277.1 279.61 277.04 280.56 277.03 280.68C277.03 280.88 276.88 281.03 276.77 281.03C276.23 281.02 273.52 281.01 268.64 280.98C268.52 280.88 268.48 280.78 268.53 280.68Z" id="bu5aC9r8"></path><path d="M301.09 273.15C300.53 273.35 300.49 273.4 300.01 272.66C299.45 271.82 299.04 271.27 298.25 270.78C295.9 269.24 293.63 269.69 291.5 271.52C288.97 273.7 287.66 276.92 287.7 280.93C287.74 284.89 289.79 288.16 292.73 288.7C295.27 289.15 297.39 287.96 299.07 285.44C299.41 284.89 299.71 284.3 300.08 283.6C298.74 283.6 297.06 283.6 292.88 283.6C292.1 283.6 291.91 282.96 292.17 282.12C292.66 280.58 293.55 278.01 294.08 276.72C294.19 276.42 294.45 275.93 295.01 275.93C296.91 275.93 303.92 275.93 308.58 275.93C308.51 277.26 308.51 278.6 308.36 279.94C307.95 283.5 306.94 286.77 305.3 289.64C302.62 294.35 299.11 297.27 294.67 298.06C291.02 298.71 287.62 297.77 284.64 294.79C281.88 292.02 280.31 288.36 279.9 283.8C279.42 278.4 280.61 273.55 283.07 269.29C285.72 264.69 289.23 261.77 293.52 260.73C297.02 259.88 300.38 260.43 303.4 263.15C305.38 264.88 306.79 267.26 307.73 270.13C307.95 270.58 307.8 270.83 307.35 270.98C305 271.77 303.4 272.36 301.09 273.15Z" id="c4rqLT9IC"></path><path d="M310.6 294C308.4 291.48 307.02 288.26 306.57 284.45C305.9 278.85 307.05 273.9 309.59 269.49C312.31 264.74 315.59 262.26 320.03 261.22C323.84 260.33 327.42 260.82 330.66 263.75C333.61 266.42 335.44 270.03 335.92 274.79C336.55 281.47 335.1 286.92 331.63 291.58C329.17 294.89 326.15 296.97 322.68 297.91C321.67 298.16 320.67 298.21 319.7 298.36C316.3 298.26 313.21 296.97 310.6 294ZM328.46 276.72C327.79 271.82 324.4 269.04 320.85 270.13C317.38 271.17 315.15 274.1 314.33 278.75C313.66 282.61 315.07 286.52 317.76 288.11C319.81 289.3 321.86 289.15 323.84 287.81C326.78 285.78 328.39 282.61 328.57 278.35C328.54 277.71 328.54 277.22 328.46 276.72Z" id="cC4GaLFeQ"></path></defs><g><g><use xlink:href="#a3rBkHr7l" opacity="1" fill="#326ce5" fill-opacity="1"></use><g><use xlink:href="#a3rBkHr7l" opacity="1" fill-opacity="0" stroke="#000000" stroke-width="1" stroke-opacity="0"></use></g></g><g><use xlink:href="#fH8mNqZPh" opacity="1" fill="#000000" fill-opacity="0"></use><g><use xlink:href="#fH8mNqZPh" opacity="1" fill-opacity="0" stroke="#000000" stroke-width="1" stroke-opacity="0"></use></g></g><g><use xlink:href="#db0NqfScD" opacity="1" fill="#ffffff" fill-opacity="1"></use><g><use xlink:href="#db0NqfScD" opacity="1" fill-opacity="0" stroke="#000000" stroke-width="1" stroke-opacity="0"></use></g></g><g><use xlink:href="#dagruz9wij" opacity="1" fill="#ffffff" fill-opacity="1"></use><g><use xlink:href="#dagruz9wij" opacity="1" fill-opacity="0" stroke="#000000" stroke-width="1" stroke-opacity="0"></use></g></g><g><use xlink:href="#c755hFiCF" opacity="1" fill="#000000" fill-opacity="0"></use><g><use xlink:href="#c755hFiCF" opacity="1" fill-opacity="0" stroke="#000000" stroke-width="1" stroke-opacity="0"></use></g></g><g><use xlink:href="#b1bno4083V" opacity="1" fill="#ffffff" fill-opacity="1"></use><g><use xlink:href="#b1bno4083V" opacity="1" fill-opacity="0" stroke="#000000" stroke-width="1" stroke-opacity="0"></use></g></g><g><use xlink:href="#hSbljdiKL" opacity="1" fill="#ffffff" fill-opacity="1"></use><g><use xlink:href="#hSbljdiKL" opacity="1" fill-opacity="0" stroke="#000000" stroke-width="1" stroke-opacity="0"></use></g></g><g><use xlink:href="#a9gKugEJV" opacity="1" fill="#ffffff" fill-opacity="1"></use><g><use xlink:href="#a9gKugEJV" opacity="1" fill-opacity="0" stroke="#000000" stroke-width="1" stroke-opacity="0"></use></g></g><g><use xlink:href="#ai0ZaAAPl" opacity="1" fill="#ffffff" fill-opacity="1"></use><g><use xlink:href="#ai0ZaAAPl" opacity="1" fill-opacity="0" stroke="#000000" stroke-width="1" stroke-opacity="0"></use></g></g><g><use xlink:href="#e1JXniM1RJ" opacity="1" fill="#ffffff" fill-opacity="1"></use><g><use xlink:href="#e1JXniM1RJ" opacity="1" fill-opacity="0" stroke="#000000" stroke-width="1" stroke-opacity="0"></use></g></g><g><use xlink:href="#agbPamjuH" opacity="1" fill="#ffffff" fill-opacity="1"></use><g><use xlink:href="#agbPamjuH" opacity="1" fill-opacity="0" stroke="#000000" stroke-width="1" stroke-opacity="0"></use></g></g><g><use xlink:href="#a2u3Ogqre4" opacity="1" fill="#ffffff" fill-opacity="1"></use><g><use xlink:href="#a2u3Ogqre4" opacity="1" fill-opacity="0" stroke="#000000" stroke-width="1" stroke-opacity="0"></use></g></g><g><use xlink:href="#b2Dw1CJVVk" opacity="1" fill="#ffffff" fill-opacity="1"></use><g><use xlink:href="#b2Dw1CJVVk" opacity="1" fill-opacity="0" stroke="#000000" stroke-width="1" stroke-opacity="0"></use></g></g><g><use xlink:href="#aHbuQGQbj" opacity="1" fill="#000000" fill-opacity="0"></use><g><use xlink:href="#aHbuQGQbj" opacity="1" fill-opacity="0" stroke="#000000" stroke-width="1" stroke-opacity="0"></use></g></g><g><use xlink:href="#c4Yc5XePDP" opacity="1" fill="#ffffff" fill-opacity="1"></use><g><use xlink:href="#c4Yc5XePDP" opacity="1" fill-opacity="0" stroke="#000000" stroke-width="1" stroke-opacity="0"></use></g></g><g><use xlink:href="#g18ooreVbW" opacity="1" fill="#ffffff" fill-opacity="1"></use><g><use xlink:href="#g18ooreVbW" opacity="1" fill-opacity="0" stroke="#000000" stroke-width="1" stroke-opacity="0"></use></g></g><g><use xlink:href="#m64FzaEidD" opacity="1" fill="#ffffff" fill-opacity="1"></use><g><use xlink:href="#m64FzaEidD" opacity="1" fill-opacity="0" stroke="#000000" stroke-width="1" stroke-opacity="0"></use></g></g><g><use xlink:href="#czzfANqCJ" opacity="1" fill="#ffffff" fill-opacity="1"></use><g><use xlink:href="#czzfANqCJ" opacity="1" fill-opacity="0" stroke="#000000" stroke-width="1" stroke-opacity="0"></use></g></g><g><use xlink:href="#bu5aC9r8" opacity="1" fill="#ffffff" fill-opacity="1"></use><g><use xlink:href="#bu5aC9r8" opacity="1" fill-opacity="0" stroke="#000000" stroke-width="1" stroke-opacity="0"></use></g></g><g><use xlink:href="#c4rqLT9IC" opacity="1" fill="#ffffff" fill-opacity="1"></use><g><use xlink:href="#c4rqLT9IC" opacity="1" fill-opacity="0" stroke="#000000" stroke-width="1" stroke-opacity="0"></use></g></g><g><use xlink:href="#cC4GaLFeQ" opacity="1" fill="#ffffff" fill-opacity="1"></use><g><use xlink:href="#cC4GaLFeQ" opacity="1" fill-opacity="0" stroke="#000000" stroke-width="1" stroke-opacity="0"></use></g></g></g></svg>